<svg width="496" height="432" viewBox="0 0 496 432" fill="none" xmlns="http://www.w3.org/2000/svg">
<path d="M483.26 75.3793L392.582 37.3137C385.68 34.4162 377.737 37.666 374.842 44.5723L295.447 233.927C292.551 240.833 295.799 248.781 302.701 251.678L393.379 289.744C400.281 292.641 408.224 289.392 411.12 282.485L490.515 93.1305C493.41 86.2242 490.162 78.2767 483.26 75.3793Z" fill="#E3EEFC"/>
<path d="M374.114 163.319L356.965 156.122C355.991 155.713 354.947 155.5 353.891 155.494C352.835 155.489 351.789 155.692 350.811 156.091C349.834 156.49 348.944 157.079 348.194 157.822C347.444 158.565 346.847 159.449 346.438 160.423C346.029 161.397 345.816 162.442 345.811 163.498C345.805 164.555 346.008 165.602 346.407 166.58C346.806 167.558 347.394 168.448 348.137 169.199C348.88 169.949 349.763 170.546 350.736 170.956L367.886 178.153C368.859 178.562 369.904 178.776 370.959 178.781C372.015 178.786 373.062 178.583 374.039 178.184C375.017 177.785 375.906 177.197 376.656 176.453C377.407 175.71 378.003 174.826 378.412 173.852C378.821 172.878 379.034 171.833 379.04 170.777C379.045 169.72 378.842 168.673 378.443 167.695C378.044 166.717 377.456 165.827 376.714 165.076C375.971 164.326 375.087 163.729 374.114 163.319Z" fill="#A9CCFF"/>
<path d="M360.475 195.839L343.326 188.642C342.353 188.232 341.308 188.019 340.252 188.014C339.196 188.008 338.15 188.211 337.172 188.611C336.195 189.01 335.306 189.598 334.555 190.341C333.805 191.085 333.208 191.968 332.799 192.942C332.391 193.916 332.177 194.962 332.172 196.018C332.167 197.074 332.369 198.122 332.769 199.1C333.168 200.078 333.755 200.967 334.498 201.718C335.241 202.469 336.124 203.066 337.098 203.475L354.247 210.673C356.213 211.499 358.427 211.51 360.401 210.704C362.375 209.897 363.948 208.339 364.774 206.372C365.6 204.405 365.611 202.19 364.805 200.215C363.998 198.239 362.441 196.665 360.475 195.839Z" fill="#A9CCFF"/>
<path d="M346.835 228.358L329.685 221.161C328.712 220.752 327.667 220.539 326.612 220.533C325.556 220.528 324.509 220.731 323.532 221.13C322.554 221.53 321.665 222.118 320.915 222.861C320.164 223.604 319.568 224.488 319.159 225.462C318.75 226.436 318.537 227.481 318.531 228.537C318.526 229.594 318.729 230.641 319.128 231.619C319.527 232.597 320.115 233.487 320.858 234.238C321.6 234.989 322.484 235.586 323.457 235.995L340.607 243.412C341.58 243.821 342.624 244.034 343.68 244.039C344.736 244.045 345.783 243.842 346.76 243.442C347.737 243.043 348.627 242.455 349.377 241.712C350.127 240.968 350.724 240.085 351.133 239.111C351.542 238.137 351.755 237.092 351.76 236.035C351.766 234.979 351.563 233.932 351.164 232.954C350.765 231.975 350.177 231.086 349.434 230.335C348.691 229.584 347.808 228.987 346.835 228.578V228.358Z" fill="#A9CCFF"/>
<path d="M399.025 250.258L381.875 243.06C379.928 242.357 377.785 242.429 375.889 243.261C373.993 244.094 372.49 245.624 371.69 247.535C370.89 249.446 370.855 251.592 371.591 253.528C372.328 255.464 373.78 257.043 375.647 257.938L392.797 265.355C394.744 266.058 396.887 265.986 398.783 265.153C400.679 264.321 402.182 262.79 402.982 260.88C403.782 258.969 403.817 256.823 403.081 254.887C402.344 252.951 400.892 251.372 399.025 250.477V250.258Z" fill="#A9CCFF"/>
<path d="M414.822 61.9908L396.582 54.3336C392.784 52.7395 388.415 54.5274 386.821 58.327L386.363 59.4197C384.77 63.2192 386.557 67.5917 390.354 69.1857L408.595 76.843C412.392 78.4371 416.762 76.6491 418.355 72.8496L418.813 71.7569C420.407 67.9573 418.62 63.5849 414.822 61.9908Z" fill="#EC8161"/>
<path d="M403.764 59.0868L398.852 70.8045C398.852 71.2433 401.176 72.2966 401.352 71.9016L406.264 60.1401C406.439 59.8768 403.939 58.8235 403.764 59.0868Z" fill="#C9644D"/>
<path d="M467.051 83.9264L448.81 76.2691C445.013 74.6751 440.643 76.463 439.05 80.2625L438.592 81.3552C436.999 85.1548 438.786 89.5272 442.583 91.1213L460.824 98.7785C464.621 100.373 468.991 98.5847 470.584 94.7851L471.042 93.6924C472.635 89.8929 470.848 85.5205 467.051 83.9264Z" fill="#EC8161"/>
<path d="M455.957 81.0304L451.045 92.748C451.045 93.143 453.413 94.1963 453.589 93.8013L458.501 82.0836C458.677 81.8203 456.133 80.7232 455.957 81.0304Z" fill="#C9644D"/>
<path d="M401.16 94.5084L382.92 86.8512C379.122 85.2571 374.752 87.045 373.159 90.8446L372.701 91.9372C371.108 95.7368 372.895 100.109 376.692 101.703L394.933 109.361C398.73 110.955 403.1 109.167 404.693 105.367L405.151 104.274C406.745 100.475 404.958 96.1025 401.16 94.5084Z" fill="#EC8161"/>
<path d="M390.123 91.7356L385.211 103.497C385.211 103.892 387.579 104.945 387.711 104.55L392.667 92.7889C392.799 92.3939 390.299 91.3406 390.123 91.7356Z" fill="#C9644D"/>
<path d="M453.391 116.444L435.15 108.787C431.353 107.193 426.983 108.981 425.39 112.78L424.932 113.873C423.339 117.672 425.125 122.045 428.923 123.639L447.163 131.296C450.961 132.89 455.331 131.102 456.924 127.303L457.382 126.21C458.975 122.41 457.188 118.038 453.391 116.444Z" fill="#EC8161"/>
<path d="M442.313 113.681L437.4 125.399C437.4 125.794 439.769 126.847 439.944 126.452L445.032 114.734C445.032 114.339 442.488 113.286 442.313 113.681Z" fill="#C9644D"/>
<path d="M387.525 127.067L369.284 119.41C365.487 117.816 361.117 119.604 359.524 123.403L359.065 124.496C357.472 128.295 359.259 132.668 363.056 134.262L381.297 141.919C385.095 143.513 389.464 141.725 391.058 137.926L391.516 136.833C393.109 133.034 391.322 128.661 387.525 127.067Z" fill="#EC8161"/>
<path d="M376.477 124.255L371.564 136.016C371.564 136.411 373.933 137.465 374.064 137.07L379.24 125.352C379.24 124.913 376.652 123.86 376.477 124.255Z" fill="#C9644D"/>
<path d="M439.771 148.962L421.53 141.304C417.733 139.71 413.363 141.498 411.77 145.298L411.312 146.39C409.718 150.19 411.505 154.562 415.303 156.156L433.543 163.814C437.341 165.408 441.71 163.62 443.304 159.82L443.762 158.728C445.355 154.928 443.568 150.556 439.771 148.962Z" fill="#EC8161"/>
<path d="M428.717 146.198L423.761 157.916C423.761 158.311 426.129 159.364 426.305 158.969L431.217 147.252C431.392 146.857 428.849 145.803 428.717 146.198Z" fill="#C9644D"/>
<path d="M373.868 159.587L355.628 151.929C351.83 150.335 347.46 152.123 345.867 155.923L345.409 157.015C343.816 160.815 345.603 165.187 349.4 166.781L367.641 174.439C371.438 176.033 375.808 174.245 377.401 170.445L377.859 169.353C379.453 165.553 377.666 161.181 373.868 159.587Z" fill="#EC8161"/>
<path d="M362.843 156.776L357.931 168.538C357.931 168.933 360.299 169.986 360.475 169.591L365.387 157.874C365.518 157.435 363.018 156.381 362.843 156.776Z" fill="#C9644D"/>
<path d="M426.113 181.481L407.873 173.824C404.075 172.23 399.706 174.018 398.112 177.817L397.654 178.91C396.061 182.709 397.848 187.082 401.645 188.676L419.886 196.333C423.683 197.927 428.053 196.139 429.646 192.34L430.104 191.247C431.698 187.448 429.911 183.075 426.113 181.481Z" fill="#EC8161"/>
<path d="M415.08 178.718L409.948 190.436C409.948 190.831 412.317 191.928 412.492 191.489L417.404 179.771C417.755 179.376 415.211 178.323 415.08 178.718Z" fill="#C9644D"/>
<path d="M360.25 192.106L342.009 184.449C338.212 182.855 333.842 184.643 332.249 188.442L331.791 189.535C330.198 193.334 331.985 197.707 335.782 199.301L354.023 206.958C357.82 208.552 362.19 206.764 363.783 202.965L364.241 201.872C365.834 198.073 364.047 193.7 360.25 192.106Z" fill="#EC8161"/>
<path d="M349.202 189.339L344.158 201.057C344.158 201.452 346.527 202.505 346.702 202.11L351.614 190.392C351.921 189.954 349.378 188.9 349.202 189.339Z" fill="#C9644D"/>
<path d="M412.497 214.005L394.257 206.347C390.459 204.753 386.089 206.541 384.496 210.341L384.038 211.433C382.445 215.233 384.232 219.605 388.029 221.199L406.27 228.857C410.067 230.451 414.437 228.663 416.03 224.863L416.488 223.771C418.081 219.971 416.295 215.599 412.497 214.005Z" fill="#EC8161"/>
<path d="M401.438 211.243L396.525 222.961C396.525 223.356 398.85 224.453 399.025 224.014L403.938 212.297C404.113 211.902 401.613 210.848 401.438 211.243Z" fill="#C9644D"/>
<path d="M344.648 225.334L326.45 217.615C322.661 216.008 318.288 217.778 316.682 221.569L316.22 222.659C314.614 226.45 316.383 230.826 320.172 232.433L338.37 240.152C342.159 241.759 346.532 239.988 348.138 236.198L348.6 235.107C350.206 231.317 348.437 226.941 344.648 225.334Z" fill="#EC8161"/>
<path d="M335.386 221.863L330.474 233.58C330.474 233.975 332.842 235.028 333.018 234.633L337.93 222.916C338.281 222.521 335.737 221.468 335.386 221.863Z" fill="#C9644D"/>
<path d="M398.839 246.522L380.598 238.865C376.801 237.271 372.431 239.059 370.838 242.858L370.38 243.951C368.787 247.751 370.574 252.123 374.371 253.717L392.612 261.374C396.409 262.968 400.779 261.18 402.372 257.381L402.83 256.288C404.423 252.489 402.636 248.116 398.839 246.522Z" fill="#EC8161"/>
<path d="M388.02 243.76L383.107 255.478C383.107 255.917 385.432 256.97 385.607 256.531L390.52 244.814C390.476 244.419 388.02 243.409 388.02 243.76Z" fill="#C9644D"/>
<path d="M396.791 56.8055C396.791 56.3666 396.002 56.1472 395.651 56.1033C394.374 55.8835 393.061 56.0703 391.897 56.6372C390.732 57.2041 389.774 58.1226 389.159 59.2631C388.809 59.8337 390.607 60.6236 390.914 60.0092C391.41 59.0634 392.186 58.2942 393.136 57.8071C394.086 57.3199 395.164 57.1387 396.221 57.2882C396.396 57.3321 396.791 57.2005 396.791 56.8055Z" fill="white"/>
<path d="M447.8 78.6172C447.642 78.4391 447.445 78.2991 447.225 78.2079C447.004 78.1167 446.766 78.0766 446.528 78.0906C445.399 78.1237 444.298 78.4533 443.335 79.0464C442.373 79.6395 441.584 80.4752 441.046 81.4698C440.739 82.0404 442.537 82.8303 442.844 82.2159C443.295 81.3623 443.962 80.6418 444.777 80.1259C445.593 79.61 446.529 79.3169 447.493 79.2755C447.932 79.2316 447.976 78.9244 447.8 78.6172Z" fill="white"/>
<path d="M433.062 111.18C432.686 110.895 432.214 110.769 431.746 110.829C430.891 111.046 430.089 111.434 429.388 111.97C428.687 112.505 428.102 113.177 427.667 113.945C427.316 114.516 429.071 115.349 429.465 114.691C429.849 114.009 430.371 113.414 430.998 112.946C431.625 112.477 432.343 112.145 433.106 111.97C433.544 111.751 433.237 111.356 433.062 111.18Z" fill="white"/>
<path d="M379.992 88.0966C378.82 88.2028 377.696 88.6155 376.734 89.2934C375.772 89.9712 375.004 90.8904 374.509 91.9586C374.246 92.573 376 93.363 376.308 92.7047C376.719 91.7796 377.364 90.9776 378.179 90.3774C378.994 89.7772 379.952 89.3996 380.957 89.2815C382.053 89.1499 380.606 88.0088 379.992 88.0966Z" fill="white"/>
<path d="M367.055 121.186C366.884 121.034 366.68 120.923 366.46 120.862C366.239 120.801 366.008 120.792 365.783 120.835C364.86 121.005 363.997 121.409 363.275 122.009C362.553 122.608 361.997 123.383 361.66 124.258C361.397 124.873 363.195 125.619 363.458 125.004C363.762 124.222 364.26 123.53 364.904 122.993C365.549 122.456 366.319 122.091 367.143 121.932C367.581 121.845 367.274 121.362 367.055 121.186Z" fill="white"/>
<path d="M417.58 142.91C415.986 143.488 414.669 144.648 413.895 146.157C413.588 146.728 415.343 147.562 415.65 146.903C416.375 145.583 417.538 144.559 418.939 144.007C419.773 143.7 418.15 142.69 417.58 142.91Z" fill="white"/>
<path d="M352.359 153.398C350.763 153.955 349.382 154.999 348.411 156.382C348.06 156.865 349.771 157.699 350.21 157.128C351.089 155.919 352.311 155.001 353.718 154.495C354.508 154.188 352.929 153.179 352.359 153.398Z" fill="white"/>
<path d="M404.509 175.297C403.108 175.835 401.89 176.764 401 177.974C400.649 178.5 402.36 179.334 402.799 178.764C403.583 177.704 404.646 176.884 405.869 176.394C406.702 176.087 405.079 175.077 404.509 175.297Z" fill="white"/>
<path d="M338.852 186.049C337.315 186.566 335.94 187.473 334.86 188.683C334.334 189.253 336.045 190.131 336.483 189.648C337.504 188.523 338.784 187.665 340.211 187.147C341.001 186.883 339.422 185.83 338.852 186.049Z" fill="white"/>
<path d="M392.403 208.565C392.232 208.413 392.028 208.302 391.808 208.241C391.587 208.18 391.356 208.171 391.131 208.214C389.68 208.657 388.415 209.567 387.534 210.803C387.184 211.286 388.894 212.164 389.333 211.549C390.123 210.489 391.228 209.706 392.491 209.311C392.973 209.18 392.71 208.741 392.403 208.565Z" fill="white"/>
<path d="M325.387 218.57C323.83 219.154 322.464 220.156 321.44 221.467C320.957 222.081 322.668 222.959 323.062 222.432C324.022 221.199 325.294 220.244 326.747 219.667C327.58 219.36 325.957 218.351 325.387 218.57Z" fill="white"/>
<path d="M377.403 240.337C375.371 241.05 373.66 242.466 372.579 244.33C372.272 244.901 374.026 245.691 374.377 245.076C375.35 243.38 376.91 242.1 378.763 241.478C379.553 241.171 377.974 240.161 377.403 240.337Z" fill="white"/>
<path d="M456.047 251.883L404.205 237.43L396.152 266.346L447.994 280.8L456.047 251.883Z" fill="#C9644D"/>
<path d="M458.587 305.379L431.043 404.299C430.317 406.88 428.598 409.067 426.264 410.383C423.929 411.699 421.169 412.037 418.587 411.321L353.805 393.24C351.229 392.523 349.043 390.812 347.727 388.483C346.411 386.154 346.073 383.398 346.787 380.82L374.375 281.9C376.34 274.878 381.009 268.924 387.358 265.345C393.706 261.765 401.215 260.853 408.236 262.81L439.464 271.587C446.47 273.544 452.416 278.199 456 284.532C459.584 290.865 460.514 298.361 458.587 305.379Z" fill="#C9644D"/>
<path d="M412.91 231.789L451.485 242.544C453.972 243.237 456.083 244.891 457.352 247.142C458.62 249.392 458.944 252.055 458.251 254.544L453.918 270.102L396.626 254.128L400.959 238.571C401.652 236.082 403.305 233.97 405.554 232.7C407.803 231.431 410.464 231.107 412.952 231.801L412.91 231.789Z" fill="#A9CCFF"/>
<path d="M395.606 257.793L395.111 259.569C394.942 260.176 395.296 260.805 395.903 260.974L450.995 276.345C451.602 276.514 452.231 276.159 452.4 275.552L452.895 273.777C453.064 273.17 452.709 272.54 452.103 272.371L397.01 257.001C396.404 256.831 395.775 257.186 395.606 257.793Z" fill="#A9CCFF"/>
<path d="M400.913 250.257C400.812 250.231 400.717 250.186 400.634 250.123C400.55 250.061 400.48 249.982 400.427 249.893C400.374 249.803 400.339 249.703 400.325 249.6C400.311 249.497 400.317 249.392 400.343 249.291L404.115 235.862C404.141 235.761 404.186 235.666 404.248 235.582C404.311 235.499 404.389 235.429 404.479 235.376C404.568 235.322 404.668 235.288 404.771 235.273C404.874 235.259 404.979 235.265 405.08 235.291C405.276 235.352 405.44 235.487 405.539 235.667C405.637 235.848 405.661 236.059 405.606 236.257L401.834 249.73C401.809 249.825 401.765 249.915 401.705 249.993C401.644 250.071 401.569 250.137 401.484 250.186C401.398 250.235 401.303 250.266 401.206 250.278C401.108 250.291 401.008 250.283 400.913 250.257Z" fill="#E3EEFC"/>
<path d="M408.107 252.187C407.911 252.126 407.746 251.992 407.648 251.811C407.55 251.631 407.526 251.42 407.58 251.222L411.309 237.749C411.37 237.553 411.504 237.388 411.684 237.29C411.865 237.192 412.076 237.167 412.274 237.222C412.374 237.247 412.468 237.292 412.55 237.356C412.632 237.419 412.699 237.498 412.749 237.589C412.798 237.68 412.828 237.78 412.837 237.883C412.846 237.986 412.833 238.09 412.8 238.188L409.072 251.661C409.011 251.857 408.876 252.021 408.696 252.12C408.516 252.218 408.305 252.242 408.107 252.187Z" fill="#E3EEFC"/>
<path d="M415.342 254.383C415.144 254.321 414.976 254.189 414.871 254.01C414.765 253.832 414.73 253.62 414.772 253.417L418.544 239.944C418.605 239.748 418.74 239.583 418.92 239.485C419.1 239.387 419.311 239.363 419.509 239.417C419.609 239.442 419.703 239.488 419.785 239.551C419.867 239.614 419.935 239.694 419.984 239.784C420.034 239.875 420.064 239.975 420.073 240.078C420.082 240.181 420.069 240.285 420.035 240.383L416.263 253.812C416.243 253.912 416.202 254.006 416.144 254.089C416.086 254.172 416.012 254.242 415.926 254.296C415.839 254.349 415.743 254.384 415.643 254.399C415.543 254.414 415.44 254.409 415.342 254.383Z" fill="#E3EEFC"/>
<path d="M422.535 256.577C422.44 256.551 422.351 256.507 422.272 256.447C422.194 256.387 422.129 256.312 422.08 256.226C422.031 256.14 421.999 256.046 421.987 255.948C421.975 255.85 421.982 255.75 422.009 255.655L425.737 242.182C425.762 242.082 425.807 241.987 425.87 241.906C425.934 241.824 426.013 241.756 426.104 241.706C426.195 241.657 426.295 241.627 426.398 241.618C426.501 241.609 426.604 241.622 426.702 241.655C426.801 241.675 426.894 241.715 426.976 241.774C427.057 241.833 427.126 241.908 427.176 241.996C427.225 242.083 427.256 242.18 427.265 242.281C427.274 242.381 427.262 242.482 427.228 242.577L423.5 256.05C423.475 256.15 423.43 256.245 423.367 256.326C423.304 256.408 423.224 256.476 423.133 256.526C423.043 256.575 422.943 256.605 422.84 256.614C422.737 256.623 422.633 256.61 422.535 256.577Z" fill="#E3EEFC"/>
<path d="M429.775 258.463C429.674 258.437 429.579 258.392 429.495 258.329C429.412 258.267 429.342 258.188 429.288 258.099C429.235 258.009 429.201 257.91 429.186 257.806C429.172 257.703 429.178 257.598 429.204 257.497L432.976 244.068C432.981 243.95 433.013 243.835 433.069 243.731C433.124 243.626 433.202 243.536 433.297 243.466C433.392 243.396 433.502 243.348 433.618 243.326C433.734 243.304 433.853 243.309 433.967 243.339C434.081 243.369 434.187 243.424 434.277 243.501C434.367 243.577 434.438 243.673 434.486 243.781C434.534 243.889 434.557 244.006 434.554 244.124C434.551 244.242 434.521 244.358 434.468 244.463L430.739 257.936C430.679 258.132 430.544 258.297 430.364 258.395C430.184 258.493 429.972 258.518 429.775 258.463Z" fill="#E3EEFC"/>
<path d="M436.967 260.526C436.771 260.465 436.607 260.33 436.509 260.15C436.41 259.969 436.386 259.758 436.441 259.56L440.169 246.087C440.227 245.883 440.364 245.711 440.549 245.608C440.734 245.505 440.952 245.48 441.156 245.539C441.359 245.597 441.532 245.733 441.634 245.919C441.737 246.104 441.762 246.322 441.704 246.526L437.932 259.999C437.871 260.195 437.736 260.36 437.556 260.458C437.376 260.556 437.165 260.581 436.967 260.526Z" fill="#E3EEFC"/>
<path d="M444.204 262.59C444.006 262.529 443.838 262.396 443.732 262.217C443.627 262.039 443.592 261.827 443.633 261.624L447.405 248.151C447.466 247.955 447.601 247.79 447.781 247.692C447.961 247.594 448.173 247.57 448.37 247.624C448.471 247.649 448.565 247.695 448.647 247.758C448.728 247.821 448.796 247.901 448.846 247.991C448.895 248.082 448.925 248.182 448.934 248.285C448.943 248.388 448.93 248.492 448.897 248.59L445.037 262.019C444.98 262.192 444.867 262.342 444.717 262.445C444.566 262.548 444.386 262.599 444.204 262.59Z" fill="#E3EEFC"/>
<path d="M451.397 264.607C451.301 264.582 451.212 264.538 451.134 264.478C451.055 264.417 450.99 264.342 450.941 264.256C450.892 264.171 450.861 264.076 450.848 263.978C450.836 263.88 450.844 263.781 450.87 263.686L454.642 250.213C454.663 250.113 454.703 250.019 454.761 249.936C454.819 249.853 454.894 249.782 454.98 249.729C455.066 249.676 455.162 249.64 455.263 249.625C455.363 249.61 455.465 249.616 455.563 249.642C455.761 249.703 455.929 249.836 456.035 250.015C456.14 250.193 456.175 250.404 456.133 250.608L452.361 264.081C452.301 264.277 452.166 264.441 451.986 264.54C451.806 264.638 451.594 264.662 451.397 264.607Z" fill="#E3EEFC"/>
<path d="M372.778 287.28L349.727 370.057L433.932 393.534L456.984 310.758L372.778 287.28Z" fill="#E3EEFC"/>
<path d="M444.009 319.004L413.59 310.518L410.539 321.467L440.958 329.953L444.009 319.004Z" fill="#A9CCFF"/>
<path d="M438.792 337.906L388.852 323.982L385.802 334.932L435.743 348.856L438.792 337.906Z" fill="#A9CCFF"/>
<path d="M433.557 356.82L383.616 342.896L380.567 353.846L430.508 367.77L433.557 356.82Z" fill="#A9CCFF"/>
<path d="M444.554 285.148C443.633 283.787 438.633 283.261 439.861 285.148C441.429 287.586 442.48 290.32 442.948 293.181C443.415 296.043 443.29 298.97 442.58 301.781C442.142 303.58 446.966 304.94 447.536 303.185C448.29 300.133 448.415 296.96 447.902 293.859C447.389 290.758 446.25 287.794 444.554 285.148Z" fill="#EC8161"/>
<path d="M476.572 422.642C476.572 427.776 468.238 431.946 457.01 431.946C445.782 431.946 437.404 427.776 437.404 422.642C437.404 417.507 445.738 413.338 457.01 413.338C468.282 413.338 476.572 417.507 476.572 422.642Z" fill="#A9CCFF"/>
<path d="M457.271 415.971C454.146 415.35 450.917 415.497 447.862 416.399C444.806 417.301 442.014 418.931 439.727 421.15C438.894 422.116 441.569 422.511 442.139 421.852C443.972 420.019 446.224 418.66 448.701 417.896C451.177 417.131 453.803 416.983 456.35 417.464C456.789 417.464 457.841 417.464 458.061 416.981C458.28 416.498 457.753 416.015 457.271 415.971Z" fill="white"/>
<path d="M436.263 413.47C436.263 418.605 427.973 422.774 416.701 422.774C405.429 422.774 397.14 418.385 397.14 413.47C397.14 408.555 405.429 404.166 416.701 404.166C427.973 404.166 436.263 408.335 436.263 413.47Z" fill="#A9CCFF"/>
<path d="M417.36 406.053C417.36 405.526 416.044 405.526 415.649 405.57C409.421 406.053 402.491 406.931 398.588 412.548C398.061 413.338 400.737 413.689 401.263 412.899C404.64 407.94 410.912 407.37 416.351 406.931C416.834 406.887 417.535 406.623 417.36 406.053Z" fill="white"/>
<path d="M496.001 402.939C496.001 408.073 487.668 412.243 476.44 412.243C465.211 412.243 456.834 407.854 456.834 402.939C456.834 398.023 465.167 393.635 476.44 393.635C487.712 393.635 496.001 397.804 496.001 402.939Z" fill="#A9CCFF"/>
<path d="M474.599 395.523C471.883 395.251 469.14 395.577 466.564 396.479C463.987 397.382 461.64 398.838 459.686 400.745C458.853 401.755 461.484 402.15 462.055 401.491C463.685 399.869 465.658 398.632 467.829 397.873C470 397.114 472.313 396.85 474.599 397.103C476.265 397.015 476.265 395.523 474.599 395.523Z" fill="white"/>
<path d="M54.9408 422.642C54.9408 427.776 46.6512 431.946 35.3791 431.946C24.107 431.946 15.8174 427.776 15.8174 422.642C15.8174 417.507 24.107 413.338 35.3791 413.338C46.6512 413.338 54.9408 417.507 54.9408 422.642Z" fill="#A9CCFF"/>
<path d="M363.589 3.92188H184.638C174.537 3.92188 166.349 12.1153 166.349 22.2225V395.3C166.349 405.408 174.537 413.601 184.638 413.601H363.589C373.69 413.601 381.878 405.408 381.878 395.3V22.2225C381.878 12.1153 373.69 3.92188 363.589 3.92188Z" fill="#A9CCFF"/>
<path d="M166.873 49.4327V35.0819C166.873 32.6786 167.346 30.2988 168.265 28.0785C169.184 25.8582 170.532 23.8407 172.23 22.1414C173.928 20.442 175.945 19.094 178.164 18.1743C180.383 17.2546 182.761 16.7813 185.163 16.7812H364.113C366.515 16.7812 368.893 17.2546 371.112 18.1743C373.331 19.094 375.347 20.442 377.046 22.1414C378.744 23.8407 380.091 25.8582 381.01 28.0785C381.93 30.2988 382.403 32.6786 382.403 35.0819V49.4327H166.873Z" fill="#E3EEFC"/>
<path d="M382.403 354.484V373.75C382.403 387.355 374.201 398.371 364.113 398.371H185.163C175.031 398.371 166.873 387.355 166.873 373.75V354.484H382.403Z" fill="#6981B7"/>
<path d="M382.403 22.4862V25.1632H166.873V22.4862C166.873 17.6325 168.8 12.9777 172.23 9.54567C175.66 6.11364 180.312 4.18555 185.163 4.18555H364.113C368.964 4.18555 373.616 6.11364 377.046 9.54567C380.476 12.9777 382.403 17.6325 382.403 22.4862Z" fill="#474799"/>
<path d="M382.403 382.617V395.783C382.391 400.629 380.459 405.273 377.03 408.695C373.601 412.118 368.956 414.04 364.113 414.04H185.163C182.763 414.046 180.386 413.578 178.167 412.663C175.948 411.748 173.932 410.404 172.233 408.708C170.534 407.012 169.186 404.998 168.266 402.78C167.346 400.562 166.873 398.184 166.873 395.783V382.617H382.403Z" fill="#474799"/>
<path d="M368.061 417.376H181.217C176.266 417.06 171.642 414.796 168.355 411.079C165.068 407.362 163.384 402.494 163.672 397.539V20.5554C163.384 15.6004 165.068 10.7328 168.355 7.01587C171.642 3.29899 176.266 1.03507 181.217 0.71875H368.061C373.012 1.03507 377.636 3.29899 380.923 7.01587C384.21 10.7328 385.894 15.6004 385.606 20.5554V397.539C385.894 402.494 384.21 407.362 380.923 411.079C377.636 414.796 373.012 417.06 368.061 417.376ZM181.217 7.69668C178.024 7.92211 175.049 9.39915 172.938 11.8069C170.827 14.2146 169.752 17.3585 169.944 20.5554V397.539C169.752 400.736 170.827 403.88 172.938 406.288C175.049 408.695 178.024 410.172 181.217 410.398H368.061C371.25 410.161 374.218 408.681 376.327 406.276C378.435 403.871 379.515 400.733 379.334 397.539V20.5554C379.526 17.3585 378.451 14.2146 376.34 11.8069C374.229 9.39915 371.254 7.92211 368.061 7.69668H181.217Z" fill="#474799"/>
<path d="M202.315 363.351H184.245C183.954 363.351 183.675 363.235 183.47 363.029C183.264 362.823 183.148 362.544 183.148 362.253C183.148 361.962 183.264 361.683 183.47 361.478C183.675 361.272 183.954 361.156 184.245 361.156H202.315C202.606 361.156 202.885 361.272 203.091 361.478C203.296 361.683 203.412 361.962 203.412 362.253C203.412 362.544 203.296 362.823 203.091 363.029C202.885 363.235 202.606 363.351 202.315 363.351Z" fill="#E3EEFC"/>
<path d="M202.446 369.319H184.332C184.041 369.319 183.762 369.204 183.557 368.998C183.351 368.792 183.235 368.513 183.235 368.222C183.235 367.931 183.351 367.652 183.557 367.446C183.762 367.241 184.041 367.125 184.332 367.125H202.446C202.737 367.125 203.016 367.241 203.222 367.446C203.427 367.652 203.543 367.931 203.543 368.222C203.543 368.513 203.427 368.792 203.222 368.998C203.016 369.204 202.737 369.319 202.446 369.319Z" fill="#E3EEFC"/>
<path d="M202.577 375.288H184.463C184.172 375.288 183.893 375.172 183.687 374.967C183.482 374.761 183.366 374.482 183.366 374.191C183.366 373.9 183.482 373.621 183.687 373.415C183.893 373.209 184.172 373.094 184.463 373.094H202.577C202.868 373.094 203.147 373.209 203.352 373.415C203.558 373.621 203.674 373.9 203.674 374.191C203.674 374.482 203.558 374.761 203.352 374.967C203.147 375.172 202.868 375.288 202.577 375.288Z" fill="#E3EEFC"/>
<path d="M282.798 364.445H262.798V375.285H282.798V364.445Z" fill="#E3EEFC"/>
<path d="M276.743 365.586L273.979 360.89C273.868 360.739 273.723 360.617 273.555 360.533C273.387 360.449 273.202 360.406 273.014 360.408C272.828 360.406 272.645 360.454 272.483 360.546C272.321 360.639 272.187 360.773 272.093 360.934L269.33 365.586L268.365 365.016L271.128 360.364C271.325 360.04 271.602 359.773 271.933 359.589C272.263 359.404 272.636 359.308 273.014 359.31C273.39 359.295 273.763 359.38 274.095 359.558C274.427 359.735 274.705 359.998 274.9 360.32L277.927 365.016L276.743 365.586Z" fill="#E3EEFC"/>
<path d="M243.106 361.109H223.105V375.285H243.106V361.109Z" fill="#E3EEFC"/>
<path d="M243.062 361.109V361.636L233.106 368.57L223.105 361.636V361.109H223.807L233.106 367.561L242.36 361.109H243.062Z" fill="#A9CCFF"/>
<path d="M321.09 368.353C321.1 370.379 320.384 372.34 319.072 373.883C318.249 374.817 317.237 375.565 316.102 376.077C314.968 376.59 313.738 376.855 312.493 376.855C311.249 376.855 310.018 376.59 308.884 376.077C307.75 375.565 306.737 374.817 305.914 373.883C304.603 372.34 303.887 370.379 303.897 368.353C304.277 366.345 305.346 364.532 306.92 363.228C308.493 361.924 310.472 361.211 312.515 361.211C314.558 361.211 316.537 361.924 318.111 363.228C319.684 364.532 320.753 366.345 321.134 368.353H321.09Z" fill="#E3EEFC"/>
<path d="M319.073 373.883C318.25 374.817 317.238 375.565 316.103 376.077C314.969 376.59 313.739 376.855 312.494 376.855C311.25 376.855 310.019 376.59 308.885 376.077C307.751 375.565 306.738 374.817 305.915 373.883C306.125 373.376 306.435 372.916 306.827 372.531C307.219 372.147 307.685 371.845 308.196 371.645C309.205 371.162 310.345 370.548 310.345 369.319C310.345 368.09 309.819 368.222 309.599 367.607C309.468 366.97 309.468 366.313 309.599 365.676C309.538 364.773 309.785 363.875 310.301 363.131C310.567 362.737 310.938 362.425 311.372 362.231C311.807 362.037 312.286 361.969 312.757 362.034C313.222 361.972 313.694 362.042 314.121 362.236C314.547 362.43 314.911 362.74 315.17 363.131C315.685 363.875 315.933 364.773 315.871 365.676C316.003 366.313 316.003 366.97 315.871 367.607C315.871 368.222 315.082 368.617 315.126 369.319C315.17 370.021 316.266 371.162 317.275 371.645C318.125 372.148 318.764 372.944 319.073 373.883Z" fill="#A9CCFF"/>
<path d="M358.849 364.709H345.516V375.242H358.849V364.709Z" fill="#E3EEFC"/>
<path d="M352.182 360.539L345.516 364.708H358.805L352.182 360.539Z" fill="#A9CCFF"/>
<path d="M354.373 367.781H349.943V372.214H354.373V367.781Z" fill="#A9CCFF"/>
<path d="M320.825 90.9492H233.104C226.976 90.9492 222.008 95.9203 222.008 102.052V133.343C222.008 139.476 226.976 144.447 233.104 144.447H320.825C326.954 144.447 331.922 139.476 331.922 133.343V102.052C331.922 95.9203 326.954 90.9492 320.825 90.9492Z" fill="#FF9100"/>
<path d="M251.039 105.737H258.934C259.686 105.649 260.449 105.723 261.169 105.956C261.89 106.189 262.552 106.575 263.11 107.088C263.668 107.6 264.109 108.227 264.402 108.926C264.696 109.624 264.835 110.378 264.811 111.135C264.757 112.098 264.426 113.024 263.858 113.803C263.29 114.581 262.509 115.179 261.609 115.524C262.768 115.813 263.794 116.487 264.52 117.436C265.245 118.385 265.626 119.552 265.601 120.747C265.601 124.696 263.188 127.066 258.495 127.066H251.039V105.737ZM259.066 114.997C260.513 114.559 261.171 113.286 261.171 111.223C261.198 110.834 261.141 110.443 261.001 110.079C260.862 109.714 260.645 109.384 260.365 109.113C260.085 108.841 259.749 108.634 259.381 108.505C259.012 108.377 258.62 108.331 258.232 108.371H254.636V114.997H259.066ZM258.144 124.477C260.425 124.477 261.96 123.511 261.96 120.878C262.02 120.395 261.967 119.905 261.805 119.446C261.644 118.987 261.379 118.571 261.031 118.231C260.683 117.892 260.261 117.637 259.799 117.487C259.336 117.337 258.845 117.296 258.364 117.367H254.636V124.477H258.144Z" fill="white"/>
<path d="M268.932 105.738H272.441V119.299C272.441 122.547 273.626 124.609 276.827 124.609C280.029 124.609 281.213 122.547 281.213 119.299C281.213 117.456 281.213 105.738 281.213 105.738H284.722V118.904C284.722 124.653 282.748 127.681 276.827 127.681C270.906 127.681 268.845 124.653 268.845 118.904C268.845 116.139 268.932 105.738 268.932 105.738Z" fill="white"/>
<path d="M292.663 119.08L286.26 105.914H290.076L293.497 113.901L294.418 116.71L295.339 113.945L298.804 105.914H302.664L296.26 119.08V127.155H292.663V119.08Z" fill="white"/>
<path d="M265.527 192.789L263.512 192.696C256.349 192.366 250.275 197.907 249.945 205.074L247.381 260.707C247.051 267.874 252.59 273.951 259.752 274.282L261.768 274.375C268.93 274.705 275.004 269.163 275.334 261.997L277.898 206.364C278.228 199.197 272.69 193.119 265.527 192.789Z" fill="#6981B7"/>
<path d="M300.181 175.417L268.109 173.943L268.003 176.267L300.075 177.741L300.181 175.417Z" fill="white"/>
<path d="M271.262 172.091V176.919V179.42C271.257 179.597 271.216 179.771 271.142 179.932C271.067 180.092 270.962 180.236 270.831 180.355C270.7 180.474 270.546 180.565 270.379 180.623C270.212 180.681 270.035 180.705 269.859 180.693L261.394 180.298C261.215 180.292 261.039 180.252 260.877 180.178C260.714 180.104 260.567 179.999 260.445 179.869C260.323 179.738 260.227 179.585 260.164 179.418C260.101 179.251 260.072 179.072 260.078 178.894V176.392V171.565C260.083 171.388 260.124 171.214 260.199 171.053C260.273 170.893 260.378 170.749 260.509 170.63C260.64 170.511 260.794 170.42 260.961 170.362C261.128 170.304 261.305 170.28 261.481 170.292L269.946 170.643C270.129 170.649 270.308 170.691 270.474 170.767C270.64 170.844 270.789 170.953 270.912 171.088C271.034 171.223 271.129 171.381 271.189 171.554C271.249 171.726 271.274 171.909 271.262 172.091Z" fill="white"/>
<path d="M265.48 180.158L263.375 180.052C259.693 179.868 256.559 182.705 256.375 186.389L256.324 187.399C256.14 191.083 258.976 194.219 262.658 194.403L264.763 194.508C268.445 194.693 271.579 191.855 271.763 188.171L271.813 187.162C271.998 183.478 269.162 180.342 265.48 180.158Z" fill="white"/>
<path d="M305.037 179.552L298.238 178.148L298.414 174.9L305.256 174.154L305.037 179.552Z" fill="white"/>
<path d="M305.631 197.025L302.592 196.167C291.868 193.141 280.722 199.387 277.697 210.117L264.113 258.312C261.089 269.042 267.331 280.195 278.055 283.221L281.094 284.079C291.819 287.105 302.964 280.86 305.989 270.129L319.573 221.935C322.598 211.204 316.356 200.051 305.631 197.025Z" fill="white"/>
<path d="M298.277 206.717C297.93 207.948 297.224 209.047 296.251 209.876C295.278 210.705 294.08 211.226 292.81 211.372C291.541 211.518 290.256 211.284 289.12 210.698C287.984 210.112 287.047 209.202 286.429 208.083C285.811 206.963 285.539 205.685 285.649 204.411C285.758 203.137 286.243 201.924 287.043 200.927C287.843 199.929 288.92 199.192 290.14 198.808C291.359 198.425 292.665 198.413 293.891 198.774C295.52 199.253 296.895 200.356 297.716 201.843C298.537 203.331 298.739 205.082 298.277 206.717Z" fill="#E3EEFC"/>
<path d="M297.138 205.663C296.681 207.078 295.694 208.261 294.384 208.963C293.074 209.665 291.543 209.832 290.112 209.429C288.682 209.026 287.463 208.084 286.712 206.8C285.961 205.517 285.737 203.993 286.085 202.547C286.542 201.133 287.529 199.95 288.839 199.248C290.149 198.546 291.68 198.379 293.11 198.782C294.541 199.185 295.759 200.127 296.51 201.41C297.261 202.693 297.486 204.218 297.138 205.663Z" fill="#A9CCFF"/>
<path d="M316.608 211.895C316.261 213.125 315.555 214.225 314.582 215.054C313.609 215.883 312.411 216.403 311.141 216.55C309.872 216.696 308.587 216.461 307.451 215.876C306.315 215.29 305.378 214.38 304.76 213.26C304.142 212.141 303.87 210.863 303.98 209.589C304.089 208.315 304.574 207.102 305.374 206.104C306.174 205.107 307.252 204.369 308.471 203.986C309.69 203.603 310.996 203.591 312.222 203.951C313.032 204.184 313.788 204.574 314.447 205.099C315.106 205.624 315.655 206.274 316.063 207.012C316.47 207.75 316.728 208.561 316.822 209.399C316.915 210.237 316.843 211.085 316.608 211.895Z" fill="#E3EEFC"/>
<path d="M315.423 210.842C315.112 211.926 314.489 212.893 313.63 213.622C312.771 214.351 311.716 214.809 310.598 214.939C309.479 215.069 308.347 214.864 307.344 214.351C306.342 213.838 305.514 213.039 304.964 212.055C304.415 211.072 304.169 209.948 304.257 208.824C304.345 207.701 304.764 206.629 305.46 205.743C306.157 204.858 307.1 204.199 308.17 203.849C309.24 203.499 310.391 203.474 311.475 203.777C312.203 203.974 312.883 204.315 313.477 204.779C314.071 205.242 314.567 205.821 314.934 206.479C315.302 207.137 315.535 207.862 315.619 208.611C315.702 209.361 315.636 210.119 315.423 210.842Z" fill="#A9CCFF"/>
<path d="M293.668 223.043C293.316 224.259 292.611 225.344 291.643 226.16C290.675 226.976 289.487 227.486 288.229 227.627C286.971 227.767 285.7 227.532 284.576 226.95C283.452 226.368 282.525 225.466 281.913 224.358C281.301 223.249 281.031 221.984 281.137 220.722C281.243 219.46 281.72 218.258 282.509 217.267C283.297 216.276 284.362 215.542 285.567 215.156C286.773 214.77 288.066 214.751 289.282 215.1C290.911 215.579 292.286 216.682 293.107 218.169C293.928 219.656 294.13 221.408 293.668 223.043Z" fill="#E3EEFC"/>
<path d="M292.528 221.989C292.225 223.086 291.604 224.068 290.743 224.812C289.882 225.556 288.82 226.027 287.692 226.166C286.563 226.305 285.418 226.106 284.403 225.594C283.387 225.082 282.546 224.28 281.987 223.289C281.427 222.298 281.174 221.164 281.259 220.029C281.345 218.894 281.764 217.81 282.466 216.915C283.167 216.019 284.118 215.351 285.199 214.997C286.28 214.643 287.441 214.617 288.536 214.923C290.001 215.333 291.243 216.307 291.991 217.631C292.739 218.956 292.932 220.523 292.528 221.989Z" fill="#A9CCFF"/>
<path d="M311.998 228.221C311.646 229.437 310.941 230.522 309.973 231.337C309.005 232.153 307.817 232.664 306.559 232.804C305.301 232.945 304.03 232.71 302.906 232.128C301.782 231.546 300.855 230.644 300.243 229.535C299.631 228.427 299.361 227.162 299.467 225.9C299.573 224.638 300.05 223.435 300.839 222.445C301.628 221.454 302.692 220.72 303.897 220.334C305.103 219.948 306.396 219.928 307.612 220.277C309.242 220.757 310.616 221.86 311.437 223.347C312.258 224.834 312.46 226.586 311.998 228.221Z" fill="#E3EEFC"/>
<path d="M310.816 227.167C310.506 228.25 309.882 229.217 309.024 229.946C308.165 230.675 307.11 231.133 305.991 231.263C304.873 231.393 303.741 231.188 302.738 230.675C301.735 230.162 300.907 229.363 300.358 228.38C299.808 227.396 299.562 226.272 299.65 225.148C299.739 224.025 300.157 222.953 300.854 222.068C301.55 221.182 302.493 220.523 303.564 220.173C304.634 219.823 305.784 219.798 306.869 220.101C307.596 220.298 308.277 220.639 308.871 221.103C309.465 221.567 309.96 222.145 310.328 222.803C310.696 223.461 310.928 224.186 311.012 224.936C311.096 225.685 311.029 226.443 310.816 227.167Z" fill="#A9CCFF"/>
<path d="M289.063 239.412C288.716 240.643 288.01 241.743 287.037 242.571C286.064 243.4 284.866 243.921 283.596 244.067C282.327 244.214 281.042 243.979 279.906 243.393C278.77 242.808 277.833 241.897 277.215 240.778C276.597 239.659 276.325 238.381 276.435 237.107C276.544 235.832 277.029 234.62 277.829 233.622C278.629 232.624 279.707 231.887 280.926 231.504C282.145 231.12 283.451 231.108 284.677 231.469C285.487 231.701 286.243 232.091 286.902 232.616C287.561 233.142 288.11 233.792 288.518 234.53C288.925 235.268 289.183 236.079 289.277 236.917C289.37 237.755 289.298 238.603 289.063 239.412Z" fill="#E3EEFC"/>
<path d="M287.879 238.315C287.466 239.776 286.49 241.013 285.166 241.753C283.842 242.494 282.278 242.678 280.818 242.265C279.358 241.852 278.122 240.875 277.382 239.55C276.641 238.225 276.457 236.66 276.87 235.199C277.289 233.742 278.266 232.51 279.589 231.77C280.911 231.03 282.472 230.843 283.932 231.249C284.656 231.452 285.333 231.795 285.924 232.261C286.515 232.726 287.008 233.304 287.375 233.96C287.742 234.617 287.975 235.34 288.062 236.087C288.148 236.835 288.086 237.592 287.879 238.315Z" fill="#A9CCFF"/>
<path d="M307.395 244.59C307.04 245.816 306.33 246.909 305.354 247.731C304.378 248.553 303.18 249.067 301.912 249.207C300.644 249.348 299.363 249.109 298.23 248.52C297.098 247.932 296.166 247.02 295.552 245.902C294.937 244.783 294.668 243.507 294.779 242.235C294.89 240.963 295.375 239.753 296.174 238.758C296.972 237.762 298.048 237.026 299.265 236.642C300.481 236.258 301.785 236.245 303.009 236.602C303.824 236.834 304.585 237.226 305.247 237.754C305.91 238.282 306.461 238.937 306.869 239.68C307.277 240.423 307.534 241.239 307.624 242.082C307.714 242.925 307.637 243.777 307.395 244.59Z" fill="#E3EEFC"/>
<path d="M306.214 243.405C305.903 244.488 305.28 245.455 304.421 246.184C303.562 246.913 302.507 247.372 301.389 247.501C300.27 247.631 299.138 247.427 298.135 246.913C297.133 246.4 296.305 245.602 295.755 244.618C295.206 243.634 294.96 242.51 295.048 241.387C295.136 240.263 295.555 239.191 296.251 238.306C296.948 237.42 297.891 236.761 298.961 236.411C300.032 236.061 301.182 236.036 302.266 236.339C302.99 236.542 303.667 236.885 304.258 237.351C304.849 237.816 305.342 238.394 305.709 239.05C306.076 239.707 306.309 240.43 306.396 241.177C306.483 241.925 306.421 242.682 306.214 243.405Z" fill="#A9CCFF"/>
<path d="M284.461 255.742C284.113 256.973 283.408 258.073 282.435 258.902C281.461 259.73 280.264 260.251 278.994 260.397C277.724 260.544 276.44 260.309 275.304 259.723C274.167 259.138 273.231 258.228 272.613 257.108C271.995 255.989 271.723 254.711 271.832 253.437C271.942 252.163 272.427 250.95 273.226 249.952C274.026 248.954 275.104 248.217 276.323 247.834C277.543 247.45 278.848 247.438 280.075 247.799C280.885 248.031 281.641 248.421 282.3 248.946C282.959 249.472 283.508 250.122 283.915 250.86C284.323 251.598 284.581 252.409 284.674 253.247C284.768 254.085 284.695 254.933 284.461 255.742Z" fill="#E3EEFC"/>
<path d="M283.277 254.644C283.08 255.372 282.74 256.053 282.276 256.648C281.813 257.242 281.235 257.738 280.577 258.106C279.919 258.474 279.195 258.706 278.446 258.79C277.697 258.874 276.939 258.808 276.216 258.594C275.133 258.284 274.167 257.66 273.438 256.801C272.71 255.942 272.252 254.886 272.122 253.766C271.992 252.647 272.197 251.514 272.71 250.511C273.222 249.508 274.021 248.679 275.004 248.13C275.987 247.58 277.11 247.334 278.233 247.422C279.356 247.51 280.427 247.929 281.312 248.626C282.197 249.323 282.856 250.266 283.206 251.337C283.555 252.408 283.58 253.559 283.277 254.644Z" fill="#A9CCFF"/>
<path d="M302.792 260.965C302.444 262.196 301.739 263.295 300.766 264.124C299.792 264.953 298.595 265.474 297.325 265.62C296.055 265.766 294.771 265.532 293.635 264.946C292.498 264.36 291.562 263.45 290.944 262.331C290.326 261.211 290.054 259.934 290.163 258.659C290.273 257.385 290.758 256.172 291.558 255.175C292.357 254.177 293.435 253.44 294.654 253.056C295.874 252.673 297.179 252.661 298.406 253.022C299.216 253.254 299.972 253.644 300.631 254.169C301.29 254.694 301.839 255.345 302.246 256.083C302.654 256.82 302.912 257.632 303.005 258.469C303.099 259.307 303.026 260.155 302.792 260.965Z" fill="#E3EEFC"/>
<path d="M301.609 259.824C301.411 260.552 301.071 261.233 300.607 261.827C300.144 262.422 299.566 262.917 298.908 263.285C298.25 263.653 297.526 263.886 296.777 263.97C296.028 264.054 295.27 263.987 294.547 263.774C293.464 263.464 292.498 262.84 291.769 261.98C291.041 261.121 290.583 260.065 290.453 258.946C290.323 257.827 290.528 256.694 291.041 255.691C291.553 254.688 292.352 253.859 293.335 253.309C294.318 252.759 295.441 252.513 296.564 252.602C297.687 252.69 298.758 253.109 299.643 253.806C300.528 254.503 301.187 255.446 301.537 256.517C301.886 257.588 301.911 258.739 301.609 259.824Z" fill="#A9CCFF"/>
<path d="M279.853 272.063C279.506 273.293 278.8 274.393 277.827 275.222C276.854 276.051 275.656 276.571 274.387 276.718C273.117 276.864 271.832 276.629 270.696 276.044C269.56 275.458 268.623 274.548 268.005 273.428C267.387 272.309 267.115 271.031 267.225 269.757C267.334 268.483 267.819 267.27 268.619 266.272C269.419 265.275 270.497 264.537 271.716 264.154C272.935 263.771 274.241 263.759 275.467 264.119C277.096 264.599 278.471 265.702 279.292 267.189C280.113 268.676 280.315 270.428 279.853 272.063Z" fill="#E3EEFC"/>
<path d="M278.669 271.01C278.359 272.094 277.735 273.061 276.876 273.79C276.018 274.519 274.962 274.977 273.844 275.107C272.725 275.237 271.593 275.032 270.591 274.519C269.588 274.006 268.76 273.207 268.21 272.223C267.661 271.24 267.415 270.116 267.503 268.992C267.591 267.869 268.01 266.797 268.706 265.911C269.403 265.026 270.346 264.367 271.416 264.017C272.487 263.667 273.637 263.642 274.721 263.945C275.449 264.142 276.129 264.482 276.723 264.946C277.317 265.41 277.813 265.989 278.18 266.647C278.548 267.305 278.781 268.03 278.865 268.779C278.948 269.529 278.882 270.287 278.669 271.01Z" fill="#A9CCFF"/>
<path d="M298.188 277.242C297.841 278.473 297.135 279.573 296.162 280.402C295.189 281.23 293.991 281.751 292.721 281.897C291.452 282.044 290.167 281.809 289.031 281.223C287.895 280.638 286.958 279.728 286.34 278.608C285.722 277.489 285.45 276.211 285.56 274.937C285.669 273.663 286.154 272.45 286.954 271.452C287.754 270.454 288.832 269.717 290.051 269.334C291.27 268.95 292.576 268.938 293.802 269.299C294.612 269.531 295.368 269.921 296.027 270.446C296.686 270.972 297.235 271.622 297.643 272.36C298.05 273.098 298.308 273.909 298.402 274.747C298.495 275.585 298.423 276.433 298.188 277.242Z" fill="#E3EEFC"/>
<path d="M297.006 276.146C296.704 277.233 296.085 278.207 295.229 278.943C294.373 279.678 293.319 280.144 292.198 280.279C291.078 280.415 289.943 280.215 288.936 279.705C287.93 279.194 287.097 278.397 286.544 277.412C285.991 276.428 285.742 275.302 285.828 274.176C285.915 273.051 286.334 271.976 287.032 271.088C287.729 270.201 288.674 269.54 289.747 269.191C290.82 268.841 291.973 268.818 293.059 269.124C293.785 269.316 294.464 269.652 295.058 270.112C295.652 270.571 296.147 271.145 296.515 271.8C296.883 272.455 297.116 273.177 297.201 273.923C297.285 274.669 297.219 275.425 297.006 276.146Z" fill="#A9CCFF"/>
<path d="M290.778 199.962C290.625 199.897 290.461 199.863 290.295 199.863C290.13 199.863 289.965 199.897 289.813 199.962C288.977 200.32 288.283 200.945 287.839 201.739C287.395 202.532 287.225 203.451 287.357 204.351C287.357 204.658 287.839 204.702 288.059 204.702C288.278 204.702 288.804 204.702 288.76 204.351C288.684 203.592 288.837 202.828 289.199 202.156C289.559 201.519 290.112 201.012 290.778 200.708C291.085 200.357 291.041 200.094 290.778 199.962Z" fill="#E3EEFC"/>
<path d="M285.604 216.726C285.446 216.652 285.274 216.613 285.1 216.613C284.925 216.613 284.753 216.652 284.595 216.726C283.967 217.246 283.507 217.94 283.272 218.721C283.038 219.502 283.041 220.335 283.28 221.115C283.28 221.115 283.28 221.115 283.587 221.115H284.157C284.376 221.115 284.727 221.115 284.639 220.632C284.501 219.988 284.538 219.318 284.746 218.693C284.955 218.068 285.326 217.51 285.823 217.077C286.087 217.077 285.78 216.77 285.604 216.726Z" fill="#E3EEFC"/>
<path d="M309.372 205.536C309.226 205.451 309.059 205.406 308.89 205.406C308.721 205.406 308.554 205.451 308.408 205.536C307.659 205.823 307.037 206.368 306.653 207.072C306.26 207.863 306.05 208.733 306.039 209.617C306.039 209.924 306.565 210.012 306.741 210.012C306.916 210.012 307.443 210.012 307.443 209.617C307.487 208.846 307.665 208.089 307.969 207.379C308.104 207.114 308.266 206.865 308.451 206.633L308.846 206.326C308.846 206.326 309.636 205.755 309.372 205.536Z" fill="#E3EEFC"/>
<path d="M303.979 221.992C303.824 221.908 303.651 221.863 303.475 221.863C303.299 221.863 303.125 221.908 302.97 221.992C302.326 222.453 301.819 223.08 301.503 223.807C301.186 224.533 301.072 225.331 301.172 226.117C301.172 226.381 301.655 226.468 301.874 226.468C302.093 226.468 302.619 226.468 302.619 226.117C302.511 225.361 302.602 224.59 302.883 223.879C303.094 223.309 303.477 222.818 303.979 222.475C304.242 222.343 304.242 222.124 303.979 221.992Z" fill="#E3EEFC"/>
<path d="M281.217 233.052C280.908 232.925 280.561 232.925 280.252 233.052C279.929 233.162 279.631 233.335 279.375 233.561C279.119 233.787 278.91 234.062 278.761 234.369C278.49 235.054 278.341 235.782 278.322 236.519C278.322 236.519 278.322 236.519 278.542 236.782C278.714 236.827 278.895 236.827 279.068 236.782C279.068 236.782 279.726 236.782 279.77 236.388C279.761 235.76 279.865 235.135 280.077 234.544V234.193L280.34 233.93C280.34 233.93 281.48 233.272 281.217 233.052Z" fill="#E3EEFC"/>
<path d="M299.548 239.02C299.398 238.946 299.233 238.908 299.066 238.908C298.898 238.908 298.733 238.946 298.583 239.02C298.129 239.381 297.777 239.854 297.562 240.393C297.346 240.932 297.275 241.517 297.355 242.092C297.355 242.399 297.838 242.487 298.057 242.487H298.583C298.583 242.487 298.583 242.487 298.583 242.224C298.539 241.977 298.539 241.724 298.583 241.478C298.558 241.23 298.558 240.98 298.583 240.732C298.682 240.489 298.8 240.254 298.934 240.03L299.241 239.766C300.294 239.02 299.767 239.02 299.548 239.02Z" fill="#E3EEFC"/>
<path d="M294.991 254.995C294.834 254.917 294.661 254.877 294.487 254.877C294.312 254.877 294.139 254.917 293.982 254.995C293.464 255.208 293.022 255.574 292.717 256.045C292.411 256.515 292.256 257.067 292.272 257.628C292.272 257.891 292.754 257.979 292.973 257.979H293.5C293.5 257.979 293.5 257.979 293.5 257.716C293.379 257.345 293.379 256.945 293.5 256.575V256.311H293.763C293.782 256.27 293.792 256.225 293.792 256.18C293.792 256.134 293.782 256.089 293.763 256.048C293.902 256.211 294.101 256.312 294.315 256.328C294.529 256.345 294.74 256.275 294.903 256.136C295.066 255.996 295.167 255.797 295.183 255.583C295.2 255.369 295.131 255.158 294.991 254.995Z" fill="#E3EEFC"/>
<path d="M276.391 249.379C276.237 249.294 276.063 249.25 275.887 249.25C275.711 249.25 275.537 249.294 275.383 249.379C274.786 249.638 274.272 250.059 273.901 250.594C273.529 251.129 273.313 251.756 273.277 252.407C273.277 252.407 273.277 252.407 273.277 252.67H273.76C273.76 252.67 274.462 252.67 274.462 252.319C274.462 251.968 274.462 252.012 274.462 251.88C274.552 251.62 274.67 251.37 274.812 251.134C274.891 251.011 274.996 250.906 275.12 250.827H275.514C275.534 250.786 275.544 250.741 275.544 250.695C275.544 250.65 275.534 250.605 275.514 250.564C275.671 250.68 275.868 250.729 276.061 250.701C276.255 250.672 276.429 250.567 276.545 250.41C276.661 250.253 276.71 250.056 276.682 249.863C276.653 249.669 276.548 249.495 276.391 249.379Z" fill="#E3EEFC"/>
<path d="M272.006 265.748C271.857 265.671 271.691 265.631 271.524 265.631C271.356 265.631 271.19 265.671 271.041 265.748C270.721 265.851 270.424 266.016 270.168 266.235C269.912 266.453 269.702 266.72 269.55 267.021C269.241 267.649 269.076 268.339 269.067 269.039C269.067 269.039 269.067 269.039 269.287 269.303C269.459 269.347 269.64 269.347 269.813 269.303C269.813 269.303 270.471 269.303 270.515 268.908C270.51 268.305 270.629 267.707 270.866 267.152V266.845V266.582L271.173 266.319C271.287 266.353 271.409 266.353 271.524 266.319L272.006 265.748Z" fill="#E3EEFC"/>
<path d="M291.525 271.146C291.39 271.073 291.239 271.035 291.086 271.035C290.933 271.035 290.782 271.073 290.648 271.146C290.268 271.184 289.906 271.32 289.595 271.541C289.359 271.712 289.151 271.919 288.981 272.156C288.634 272.678 288.382 273.258 288.235 273.867C288.235 273.867 288.235 273.867 288.235 274.131C288.377 274.185 288.533 274.185 288.674 274.131C288.859 274.194 289.059 274.194 289.244 274.131C289.293 274.151 289.345 274.162 289.398 274.162C289.45 274.162 289.503 274.151 289.551 274.131C289.706 273.579 289.927 273.049 290.209 272.551H290.472C290.472 272.551 290.735 272.551 290.472 272.551C290.615 272.595 290.768 272.595 290.911 272.551C291.097 272.632 291.308 272.636 291.497 272.562C291.686 272.488 291.838 272.342 291.92 272.156C292.001 271.97 292.005 271.759 291.931 271.569C291.857 271.38 291.711 271.228 291.525 271.146Z" fill="#E3EEFC"/>
<path d="M260.119 245.865L265.602 278.253C265.744 278.824 265.771 279.418 265.679 279.999C265.588 280.58 265.38 281.137 265.069 281.637C264.758 282.136 264.35 282.568 263.869 282.907C263.388 283.245 262.843 283.483 262.268 283.607L230.119 289.093C229.532 289.166 228.937 289.119 228.368 288.956C227.8 288.793 227.271 288.517 226.812 288.144C226.353 287.771 225.974 287.309 225.698 286.785C225.422 286.262 225.255 285.689 225.206 285.099L219.724 252.711C219.032 248.683 218.841 244.585 219.154 240.51C219.671 232.884 222.083 225.507 226.171 219.05L227.268 217.251L241.347 214.881L243.014 216.197C248.982 220.963 253.682 227.128 256.698 234.147C258.291 237.906 259.439 241.839 260.119 245.865Z" fill="#C9644D"/>
<path d="M226.918 226.686C225.202 230.799 224.123 235.15 223.716 239.588C223.431 244.202 223.607 248.833 224.243 253.412C225.295 263.419 226.831 273.337 228.629 283.167C228.629 284.089 231.436 283.65 231.217 282.729C229.316 273.074 227.854 263.331 226.831 253.5C226.189 248.966 225.983 244.381 226.217 239.808C226.596 235.28 227.676 230.838 229.418 226.642C229.857 225.852 227.269 225.852 226.918 226.686Z" fill="#EC8161"/>
<path d="M243.982 214.442L224.552 217.734L223.324 204.831C223.284 204.341 223.428 203.853 223.728 203.463C224.028 203.074 224.463 202.81 224.947 202.724L238.894 200.398C239.381 200.317 239.88 200.42 240.294 200.688C240.708 200.956 241.007 201.369 241.131 201.847L243.982 214.442Z" fill="white"/>
<path d="M260.121 245.866L263.191 263.991L222.752 270.837L219.682 252.712C218.99 248.685 218.799 244.587 219.112 240.512L256.656 234.148C258.264 237.906 259.427 241.838 260.121 245.866Z" fill="#E3EEFC"/>
<path d="M250.694 231.558C250.034 229.82 249.165 228.17 248.106 226.643C247.58 225.897 245.036 226.379 245.606 227.169C246.666 228.712 247.535 230.377 248.194 232.129C248.457 232.919 251.045 232.567 250.694 231.558Z" fill="#EC8161"/>
<path d="M317.617 237.644L214.032 243.91L214.117 245.312L317.701 239.045L317.617 237.644Z" fill="#474799"/>
<path d="M308.412 276.322H221.394V277.727H308.412V276.322Z" fill="#474799"/>
<path d="M319.246 236.341L317.053 235.727L318.719 229.583C319.545 226.638 321.178 223.984 323.434 221.921C325.69 219.857 328.478 218.468 331.483 217.909L340.869 216.197L341.264 218.435L331.878 220.147C329.287 220.63 326.885 221.833 324.946 223.618C323.007 225.403 321.609 227.698 320.912 230.241L319.246 236.341Z" fill="#474799"/>
<path d="M306.262 290.849H223.323L210.866 235.727L321.263 228.311L306.262 290.849ZM225.165 288.567H304.683L318.543 230.768L213.673 237.834L225.165 288.567Z" fill="#474799"/>
<path d="M226.656 322.885L223.454 321.788C223.847 320.119 224.622 318.564 225.718 317.247C226.814 315.929 228.201 314.885 229.77 314.195L283.148 291.682C285.299 290.76 287.687 290.549 289.966 291.078C292.246 291.606 294.297 292.848 295.824 294.622L312.929 314.459C314.591 316.404 315.508 318.877 315.517 321.437V322.402H312.14V321.437C312.123 319.693 311.485 318.012 310.341 316.697L293.236 296.86C292.18 295.631 290.76 294.772 289.181 294.409C287.603 294.046 285.95 294.197 284.464 294.842L231.042 317.399C229.949 317.858 228.98 318.571 228.217 319.479C227.455 320.388 226.919 321.465 226.656 322.622C226.656 322.622 226.7 322.797 226.656 322.885Z" fill="#474799"/>
<path d="M237.797 329.205C237.797 330.714 237.35 332.188 236.513 333.443C235.677 334.698 234.487 335.677 233.095 336.256C231.704 336.835 230.171 336.989 228.692 336.698C227.213 336.407 225.853 335.684 224.784 334.62C223.715 333.557 222.985 332.2 222.685 330.722C222.386 329.243 222.531 327.709 223.102 326.313C223.673 324.917 224.644 323.721 225.893 322.877C227.142 322.033 228.614 321.578 230.121 321.569C231.129 321.557 232.128 321.746 233.062 322.126C233.996 322.505 234.844 323.066 235.559 323.777C236.273 324.488 236.839 325.334 237.223 326.266C237.608 327.198 237.802 328.197 237.797 329.205Z" fill="#2C2A4C"/>
<path d="M231.434 329.863C231.589 329.532 231.678 329.175 231.698 328.81C231.698 326.352 231.697 319.286 227.706 319.594C226.54 319.678 225.404 320.007 224.373 320.559C219.11 323.105 225.952 328.985 228.759 330.39C229.148 330.621 229.602 330.72 230.052 330.672C230.503 330.625 230.926 330.434 231.259 330.126L231.434 329.863Z" fill="#474799"/>
<path d="M324.858 329.205C324.858 330.715 324.411 332.191 323.572 333.447C322.733 334.703 321.541 335.682 320.147 336.26C318.752 336.838 317.218 336.989 315.738 336.694C314.257 336.4 312.897 335.672 311.83 334.604C310.763 333.536 310.036 332.176 309.741 330.694C309.447 329.213 309.598 327.678 310.176 326.282C310.753 324.887 311.731 323.695 312.986 322.855C314.242 322.016 315.717 321.568 317.226 321.568C318.23 321.563 319.225 321.756 320.154 322.138C321.082 322.52 321.926 323.082 322.636 323.792C323.346 324.502 323.908 325.346 324.289 326.276C324.671 327.205 324.864 328.2 324.858 329.205Z" fill="#2C2A4C"/>
<path d="M318.5 329.863C318.654 329.532 318.743 329.175 318.763 328.81C318.982 326.352 318.763 319.286 314.815 319.594C313.634 319.672 312.482 320.001 311.438 320.559C306.219 323.105 313.017 328.985 315.824 330.39C316.205 330.624 316.653 330.726 317.097 330.678C317.542 330.63 317.958 330.436 318.28 330.126L318.5 329.863Z" fill="#474799"/>
<path d="M225.987 235.739L224.611 236.016L235.416 289.843L236.792 289.566L225.987 235.739Z" fill="#474799"/>
<path d="M245.64 234.524L244.242 234.664L249.773 289.816L251.17 289.676L245.64 234.524Z" fill="#474799"/>
<path d="M265.601 233.225H264.196V289.706H265.601V233.225Z" fill="#474799"/>
<path d="M284.42 231.812L278.632 289.629L280.029 289.769L285.817 231.952L284.42 231.812Z" fill="#474799"/>
<path d="M304.825 230.287L292.958 289.496L294.334 289.772L306.201 230.564L304.825 230.287Z" fill="#474799"/>
<path d="M312.94 257.414L217.763 260.307L217.805 261.71L312.982 258.817L312.94 257.414Z" fill="#474799"/>
<path d="M347.486 213.653L329.983 216.418C328.548 216.644 327.567 217.993 327.794 219.429L327.856 219.819C328.082 221.256 329.43 222.236 330.865 222.01L348.368 219.245C349.804 219.019 350.784 217.67 350.557 216.234L350.496 215.844C350.269 214.407 348.922 213.426 347.486 213.653Z" fill="#2C2A4C"/>
<path d="M364.466 336.801C365.431 336.418 366.344 335.916 367.185 335.309C368.538 334.328 369.583 332.981 370.197 331.426C370.811 329.871 370.968 328.173 370.65 326.532C370.41 324.783 369.516 323.19 368.149 322.074C366.782 320.958 365.042 320.403 363.282 320.519C361.572 320.826 359.94 321.469 358.479 322.411C357.019 323.352 355.759 324.574 354.773 326.005C354.865 325.404 354.832 324.791 354.676 324.204C354.519 323.617 354.242 323.069 353.863 322.595C353.484 322.12 353.01 321.73 352.472 321.448C351.934 321.166 351.344 320.999 350.738 320.958C348.428 321.03 346.226 321.952 344.554 323.547C341.407 325.991 338.706 328.96 336.571 332.325C336.43 331.754 336.159 331.224 335.78 330.775C335.4 330.326 334.922 329.971 334.383 329.738C333.844 329.504 333.258 329.398 332.672 329.428C332.085 329.458 331.513 329.623 331.001 329.911C328.473 331.606 326.492 334 325.299 336.801H364.466Z" fill="#E3EEFC"/>
<path d="M168.712 136.414C156.766 133.355 145.18 129.03 134.15 123.512C131.886 122.363 129.461 121.564 126.957 121.142C123.843 120.759 120.701 121.592 118.185 123.468C115.685 125.355 116.826 129.217 117.703 131.631C118.862 135.232 120.422 138.691 122.352 141.944C124.545 145.236 127.572 147.887 131.124 149.624C134.592 151.16 138.276 152.151 142.045 152.565L150.817 154.013C160.236 155.93 169.87 156.564 179.458 155.9C180.113 156 180.783 155.933 181.405 155.706C182.028 155.478 182.583 155.098 183.02 154.6C183.457 154.101 183.761 153.501 183.905 152.854C184.05 152.207 184.028 151.534 183.844 150.897C183.844 149.185 183.581 147.518 183.493 145.806C183.493 143.304 183.142 139.75 180.642 138.477C179.25 137.905 177.761 137.607 176.256 137.599C173.719 137.366 171.199 136.97 168.712 136.414Z" fill="#E3EEFC"/>
<path d="M180.994 138.916H184.064L217.793 137.688C219.021 137.688 221.126 137.687 221.477 139.004C221.722 140.5 221.492 142.035 220.819 143.393C219.559 144.472 218.053 145.226 216.433 145.587C204.763 149.883 192.725 153.101 180.468 155.198C177.529 155.681 173.494 155.856 171.696 152.872C170.749 150.567 170.49 148.037 170.95 145.587C171.248 144.307 171.861 143.122 172.735 142.141C173.608 141.159 174.714 140.413 175.95 139.97C177.573 139.381 179.271 139.026 180.994 138.916Z" fill="#F7967C"/>
<path d="M232.612 139.09L232.875 139.309C233.073 139.477 233.249 139.669 233.401 139.88C233.623 140.428 233.623 141.042 233.401 141.591C233.067 143.362 232.061 144.934 230.594 145.98C228.884 147.165 226.954 145.98 225.594 144.839C225.064 144.344 224.566 143.817 224.103 143.259C223.686 142.853 223.396 142.335 223.27 141.767C223.274 141.27 223.4 140.782 223.637 140.346C223.874 139.91 224.215 139.539 224.629 139.265C225.738 138.254 227.132 137.61 228.62 137.422C230.115 137.445 231.544 138.042 232.612 139.09Z" fill="#F7967C"/>
<path d="M220.509 136.677C221.623 136.329 222.769 136.094 223.93 135.974C228.729 135.303 233.447 134.141 238.009 132.507C238.58 132.507 239.939 132.025 239.939 132.902C239.939 134.833 236.869 135.755 235.553 136.15C234.824 136.323 234.106 136.543 233.404 136.808C233.184 136.951 232.949 137.069 232.702 137.159L231.737 137.379C230.487 137.815 229.317 138.452 228.272 139.266C227.636 139.647 227.06 140.12 226.562 140.67C226.275 140.998 226.117 141.419 226.117 141.855C226.117 142.291 226.275 142.712 226.562 143.04C227.006 143.493 227.525 143.864 228.097 144.137C228.446 144.286 228.784 144.463 229.106 144.664C229.332 144.862 229.538 145.082 229.72 145.322C230.495 146.046 231.018 147 231.211 148.043C231.315 148.357 231.315 148.695 231.211 149.009C230.597 149.886 229.632 149.009 229.15 148.57C227.176 146.156 224.413 146.771 221.737 145.849C220.356 145.456 219.14 144.624 218.272 143.479C217.902 142.817 217.672 142.085 217.597 141.33C217.521 140.575 217.602 139.813 217.834 139.09C218.377 137.968 219.337 137.101 220.509 136.677Z" fill="#F7967C"/>
<path d="M231.208 137.512H230.945L229.761 138.082C229.363 138.242 228.992 138.464 228.664 138.741L227.787 139.531C227.49 139.722 227.182 139.898 226.866 140.057V139.662C226.866 139.662 226.471 139.662 226.515 139.662C226.751 140.358 226.898 141.08 226.954 141.813C226.887 142.396 226.978 142.987 227.217 143.524C227.36 143.717 227.539 143.881 227.743 144.007C228.037 144.156 228.316 144.333 228.577 144.534C229.111 144.929 229.597 145.385 230.024 145.894C230.024 145.894 230.463 145.894 230.331 145.894C229.93 145.376 229.458 144.918 228.927 144.534L228.182 144.051C228.476 143.923 228.786 143.834 229.103 143.787H229.673C229.673 143.787 230.024 143.787 230.156 143.787C230.287 143.787 230.156 143.568 230.156 143.436C230.131 143.276 230.131 143.114 230.156 142.954C230.314 142.632 230.538 142.348 230.813 142.12C230.448 142.075 230.1 141.939 229.801 141.724C229.502 141.51 229.262 141.223 229.103 140.891C229.103 140.891 228.664 140.891 228.752 140.891C228.917 141.24 229.162 141.544 229.467 141.781C229.772 142.017 230.128 142.178 230.506 142.251C230.285 142.429 230.105 142.654 229.98 142.91C229.956 143.055 229.956 143.203 229.98 143.349C229.98 143.349 229.98 143.349 229.98 143.568H228.927L228.006 143.875C227.853 143.751 227.719 143.602 227.612 143.436C227.393 142.878 227.303 142.278 227.348 141.681C227.348 141.198 227.348 140.759 227.348 140.277C228.077 139.957 228.733 139.495 229.278 138.916C229.527 138.61 229.806 138.331 230.112 138.082L231.34 137.512C231.34 137.512 231.296 137.556 231.208 137.512Z" fill="#DB6357"/>
<path d="M188.098 136.635C188.477 136.583 188.862 136.625 189.221 136.755C189.58 136.884 189.902 137.099 190.16 137.381C190.679 138.659 190.875 140.046 190.73 141.418C190.73 143.305 190.73 145.192 190.73 147.08C190.563 150.789 190.064 154.475 189.239 158.095C189.183 158.507 188.999 158.891 188.713 159.192C188.432 159.443 188.078 159.597 187.704 159.631C186.115 159.805 184.512 159.805 182.923 159.631C182.398 159.614 181.884 159.483 181.415 159.248C180.945 159.014 180.532 158.68 180.204 158.271C179.246 157.569 178.1 157.171 176.914 157.129L167.835 155.637C167.619 155.623 167.416 155.529 167.265 155.374C167.176 155.273 167.111 155.154 167.073 155.025C167.035 154.896 167.026 154.761 167.046 154.628C166.884 151.923 167.076 149.208 167.616 146.553C168.231 143.992 169.284 141.557 170.73 139.356C171.076 138.951 171.507 138.627 171.992 138.407C172.477 138.187 173.004 138.077 173.537 138.083C175.943 138.245 178.355 137.87 180.598 136.986C180.977 136.749 181.434 136.67 181.87 136.766C183.988 136.635 186.112 136.635 188.23 136.766L188.098 136.635Z" fill="#E3EEFC"/>
<path d="M130.771 377.352C130.376 383.365 130.069 389.377 129.762 395.39C129.762 399.778 129.368 403.772 129.192 407.985C128.973 410.907 128.973 413.841 129.192 416.762C129.4 417.656 129.324 418.592 128.973 419.439C128.315 420.668 125.99 420.449 124.806 420.536C122.876 420.536 119.806 421.326 118.666 419.308C118.165 418.316 117.924 417.214 117.964 416.104C117.366 407.594 116.282 399.124 114.718 390.738C111.124 375.287 109.357 359.467 109.455 343.604C109.718 337.723 110.902 331.93 111.429 326.049C111.78 319.743 111.648 313.42 111.034 307.134C110.508 299.498 107.569 292.125 107.087 284.401C106.966 283.46 107.04 282.503 107.306 281.592C107.58 280.972 107.978 280.414 108.476 279.953C108.974 279.493 109.561 279.14 110.201 278.915C111.483 278.462 112.832 278.225 114.192 278.213C118.924 277.906 123.671 277.906 128.403 278.213C129.737 278.255 131.049 278.565 132.262 279.122C133.474 279.68 134.563 280.475 135.464 281.461C136.355 283.126 136.708 285.028 136.473 286.903C136.166 298.269 135.903 309.68 135.596 321.046C135.596 322.845 135.596 324.645 135.289 326.4C134.329 331.467 133.626 336.579 133.183 341.717C133.183 347.685 132.219 353.698 131.824 359.622C131.429 365.547 131.122 371.428 130.771 377.352Z" fill="#F7967C"/>
<path d="M105.335 337.328C105.905 354.004 106.343 370.681 107.045 387.314C107.264 392.756 107.528 398.154 107.791 403.552C107.791 403.991 129.721 403.201 131.651 403.069C136.958 402.718 136.475 402.63 136.695 397.584C136.695 393.414 137.177 389.245 137.396 385.032C139.414 347.553 142.046 309.986 142.133 272.42C142.295 254.714 141.269 237.017 139.063 219.449C138.953 216.599 138.024 213.841 136.388 211.505C135.08 210.212 133.498 209.229 131.76 208.629C130.021 208.029 128.17 207.827 126.344 208.038C108.185 208.697 101.08 228.094 101.168 243.455C101.168 266.846 103.317 290.062 104.413 313.41C104.764 321.397 105.071 329.34 105.335 337.328Z" fill="#FF9100"/>
<path d="M129.503 415.01L130.862 416.151C132.051 417.01 133.193 417.933 134.284 418.916C134.476 419.07 134.635 419.262 134.748 419.482C134.862 419.701 134.927 419.942 134.941 420.188C134.941 420.934 133.845 421.286 133.012 421.373C132.178 421.461 131.213 421.373 130.292 421.373C126.301 421.373 122.441 420.891 118.494 420.496C118.081 420.482 117.677 420.377 117.31 420.188C116.476 419.706 116.52 418.565 116.739 417.643C117.005 416.033 117.685 414.521 118.713 413.254C119.248 412.616 119.921 412.106 120.68 411.764C121.44 411.422 122.267 411.257 123.099 411.279C124.43 411.443 125.697 411.941 126.783 412.728C127.731 413.438 128.638 414.2 129.503 415.01Z" fill="#F7967C"/>
<path d="M146.082 424.446H127.88L123.494 423.875C122.882 423.734 122.24 423.828 121.695 424.138L121.344 424.446H115.73C115.68 424.008 115.68 423.566 115.73 423.129C115.776 422.882 115.776 422.629 115.73 422.383C115.616 422.144 115.528 421.894 115.467 421.637C115.424 421.375 115.424 421.108 115.467 420.847C115.467 419.75 116.081 417.292 117.353 416.458C117.665 416.344 118.006 416.344 118.318 416.458L129.239 418.96C128.547 418.236 128.141 417.284 128.099 416.283C128.074 415.972 128.135 415.661 128.274 415.383C128.413 415.105 128.626 414.869 128.888 414.703C129.21 414.5 129.583 414.393 129.963 414.393C130.343 414.393 130.716 414.5 131.037 414.703C133.011 415.888 134.722 417.424 136.783 418.477C138.845 419.53 142.573 420.364 145.248 421.768C145.692 422.018 146.045 422.403 146.257 422.866C146.391 423.116 146.446 423.401 146.414 423.683C146.383 423.965 146.267 424.231 146.082 424.446Z" fill="#474799"/>
<path d="M95.685 377.486C94.9832 383.499 94.3253 389.467 93.7113 395.48C93.2727 399.649 92.8779 403.818 92.4832 407.987C92.1121 410.897 91.98 413.833 92.0884 416.765C92.2555 417.672 92.1327 418.608 91.7375 419.442C91.0358 420.627 88.7112 420.275 87.3515 420.319C85.9918 420.363 82.3514 420.802 81.2988 418.739C80.8803 417.726 80.7002 416.63 80.7725 415.536C80.6639 406.993 80.0487 398.464 78.9303 389.994C76.2945 374.356 75.5142 358.461 76.6057 342.64C77.2198 336.76 78.6672 331.098 79.5005 325.086C80.2395 318.81 80.4741 312.485 80.2023 306.171C80.2023 298.535 77.5268 291.03 77.4391 283.262C77.3837 282.291 77.5331 281.319 77.8777 280.41C78.1717 279.799 78.5945 279.259 79.1169 278.827C79.6393 278.395 80.249 278.082 80.904 277.908C82.1984 277.527 83.5473 277.363 84.8953 277.425C89.6278 277.352 94.3601 277.586 99.0622 278.128C100.391 278.24 101.685 278.616 102.867 279.234C104.049 279.852 105.097 280.699 105.948 281.726C106.709 283.482 106.893 285.433 106.475 287.3L103.711 321.356C103.563 323.184 103.3 325.002 102.922 326.797C101.7 331.807 100.733 336.875 100.027 341.982C99.5885 347.907 98.4043 353.875 97.6587 359.8C96.9131 365.725 96.3867 371.605 95.685 377.486Z" fill="#F7967C"/>
<path d="M75.0697 336.232C74.6749 357.166 73.6662 378.1 72.7889 398.99C72.6953 399.92 72.7847 400.859 73.0521 401.755C73.9732 403.993 76.5609 402.808 78.3592 402.852C83.2716 402.852 88.1401 403.159 93.0086 403.203H95.7279C100.86 403.203 100.377 403.203 100.903 398.024L102.219 385.517C104.792 360.94 107.292 336.335 109.719 311.7C112.088 287.738 115.816 263.425 115.86 239.331C115.86 236.742 115.29 234.065 115.465 231.519C115.69 229.337 115.587 227.132 115.158 224.98C114.728 222.865 113.484 221.005 111.693 219.802C109.758 218.981 107.782 218.264 105.772 217.651C103.728 216.512 101.525 215.684 99.2367 215.194C96.4735 214.667 93.5349 215.194 90.9471 214.535C78.6224 212.517 79.1048 223.313 78.6662 232.09C77.7452 249.644 77.2188 267.199 76.5171 284.754C75.8153 302.308 75.3767 319.16 75.0697 336.232Z" fill="#FF9100"/>
<path d="M92.6587 415.094C93.076 415.526 93.5151 415.936 93.9745 416.323C95.0935 417.26 96.1622 418.257 97.1763 419.307C97.373 419.454 97.5314 419.647 97.6383 419.868C97.7451 420.09 97.7973 420.334 97.7903 420.58C97.7903 421.326 96.65 421.633 95.8166 421.677C94.9833 421.721 93.9745 421.677 93.0973 421.677C89.106 421.413 85.2901 420.755 81.3427 420.185C80.9452 420.134 80.5593 420.016 80.2023 419.834C79.369 419.263 79.5006 418.122 79.7637 417.244C80.0912 415.612 80.8482 414.097 81.9568 412.856C82.5069 412.249 83.1876 411.776 83.9475 411.472C84.7074 411.168 85.5265 411.041 86.3428 411.1C87.6559 411.325 88.8837 411.901 89.8955 412.768C90.8687 413.479 91.7919 414.256 92.6587 415.094Z" fill="#F7967C"/>
<path d="M108.712 425.451L90.5099 424.486L86.1239 423.652C85.534 423.408 84.8716 423.408 84.2817 423.652L83.9308 423.915L78.4922 423.652C78.4215 423.201 78.4215 422.742 78.4922 422.291C78.5375 422.045 78.5375 421.792 78.4922 421.545C78.399 421.303 78.3256 421.053 78.2729 420.799C78.2294 420.523 78.2294 420.241 78.2729 419.965C78.2729 418.912 79.1062 416.454 80.3782 415.884C80.6903 415.773 81.0309 415.773 81.3431 415.884L92.2643 419.044C91.6026 418.293 91.2431 417.323 91.2555 416.323C91.2495 416.005 91.3274 415.692 91.4815 415.414C91.6356 415.137 91.8602 414.905 92.1327 414.743C92.4831 414.597 92.8654 414.544 93.2421 414.59C93.6188 414.637 93.977 414.78 94.2819 415.006C96.1679 416.323 97.8346 417.946 99.8083 419.087C101.782 420.229 105.466 421.282 108.054 422.862C108.49 423.14 108.84 423.535 109.063 424.003C109.128 424.254 109.13 424.518 109.069 424.771C109.008 425.024 108.885 425.257 108.712 425.451Z" fill="#474799"/>
<path d="M78.9722 227.699C78.9772 228.569 79.1876 229.426 79.5862 230.2C80.4062 231.224 81.5514 231.936 82.8318 232.219C93.1829 235.379 104.28 234.764 115.113 234.896C122.511 234.896 129.923 235.335 137.35 236.213C138.065 236.433 138.829 236.433 139.543 236.213C140.771 235.511 140.815 233.799 140.684 232.439C139.244 217.61 136.559 202.93 132.657 188.552C132.568 188.199 132.404 187.87 132.175 187.587C131.857 187.279 131.433 187.106 130.99 187.104C128.935 186.885 126.862 186.885 124.806 187.104C113.932 187.689 103.16 189.514 92.7004 192.546C90.0249 193.336 86.9109 194.038 85.5073 196.627C84.0687 199.833 82.9379 203.169 82.1301 206.589C79.8359 213.383 78.7666 220.531 78.9722 227.699Z" fill="#F45B71"/>
<path d="M133.315 201.806C130.157 201.806 126.956 201.806 123.754 202.069C123.754 200.226 123.754 198.383 123.754 196.539C123.754 196.276 123.052 196.276 123.052 196.539C123.052 198.383 123.052 200.226 123.052 202.069H118.096C118.096 200.884 118.096 199.699 118.096 198.514H117.394V202.069H114.324C108.008 202.069 101.692 201.718 95.42 201.411L84.7181 200.884H84.3672C84.3672 200.884 84.6303 200.884 84.7181 200.884C91.0339 201.191 97.3498 201.542 103.71 201.762C108.096 201.762 112.833 202.069 117.438 202.113V221.774C117.525 223.903 117.393 226.035 117.043 228.137C117.043 228.137 117.526 228.137 117.613 228.137L120.815 226.601L122.263 225.899C122.44 225.813 122.594 225.683 122.709 225.522C122.824 225.361 122.896 225.174 122.92 224.978C122.963 224.437 122.963 223.894 122.92 223.354V221.554C122.92 220.37 122.92 219.185 123.14 218.044C123.403 213.392 123.534 208.696 123.534 204.044C123.534 203.342 123.534 202.639 123.534 201.981C126.736 201.981 129.938 201.981 133.096 201.718H133.447C133.447 201.718 133.622 201.806 133.315 201.806ZM122.306 223.749C122.306 224.1 122.306 224.407 122.306 224.714C122.371 225.003 122.371 225.303 122.306 225.592C122.146 225.783 121.932 225.921 121.692 225.987L120.859 226.426L118.052 227.742C118.307 226.029 118.41 224.296 118.359 222.564V202.42H123.096C123.14 209.617 122.877 216.815 122.306 223.968V223.749Z" fill="#D83F4E"/>
<path d="M125.287 235.159C122.893 237.632 120.829 240.406 119.146 243.41C119.146 243.41 119.673 243.673 119.804 243.41C121.474 240.393 123.507 237.593 125.857 235.071C126.076 235.115 125.419 234.983 125.287 235.159Z" fill="#D83F4E"/>
<path d="M88.3173 93.0101C88.3173 93.6245 88.3173 94.2389 88.3173 94.8533C88.6268 98.3819 88.2848 101.937 87.3085 105.342C86.4108 107.056 85.3844 108.699 84.2383 110.257C83.0208 112.248 82.2355 114.472 81.9332 116.785C81.6309 119.099 81.8186 121.45 82.4839 123.687C82.6484 124.394 82.9964 125.044 83.4927 125.574C84.1593 126.061 84.9499 126.35 85.7734 126.408C98.0819 128.514 110.658 128.514 122.967 126.408C124.503 126.214 125.99 125.738 127.353 125.003C128.04 124.628 128.621 124.086 129.043 123.426C129.465 122.766 129.713 122.01 129.765 121.229C129.596 119.866 129.227 118.535 128.669 117.279C127.616 113.461 129.941 109.38 129.239 105.474C128.124 102.433 126.744 99.4959 125.116 96.6965C123.888 93.3612 126.256 90.2014 125.116 86.7782C124.585 85.3226 123.781 83.982 122.748 82.8285C120.948 80.8208 118.722 79.2424 116.232 78.2095C113.742 77.1766 111.053 76.7154 108.361 76.8599C103.693 76.9762 99.2424 78.858 95.9051 82.1263C92.3138 84.8837 89.6633 88.6855 88.3173 93.0101Z" fill="#C9644D"/>
<path d="M79.6793 163.756C81.1229 169.759 82.2212 175.84 82.9688 181.969C83.4074 185.041 83.8021 188.113 84.1969 191.185C84.2539 192.776 84.4298 194.361 84.7232 195.925H134.329C135.357 193.116 135.848 190.138 135.777 187.148C136.785 179.248 137.531 171.261 138.408 163.318C138.671 161.079 138.935 158.929 139.11 156.471C139.22 154.732 139.22 152.988 139.11 151.249C138.526 145.772 137.543 140.345 136.171 135.011C135.382 130.973 135.777 125.136 131.522 122.854C130.68 122.455 129.798 122.146 128.891 121.933C126.871 121.397 124.82 120.987 122.75 120.704C119.987 120.353 117.224 120.133 114.461 119.695C109.21 118.697 103.832 118.564 98.5392 119.3C97.3185 119.534 96.1165 119.856 94.9427 120.265C89.9638 122.192 85.2712 124.791 80.9951 127.989C79.153 129.262 76.2582 131.017 75.4248 133.168C74.0876 137.574 74.0876 142.278 75.4248 146.685C76.6091 152.478 78.2319 158.095 79.6793 163.756Z" fill="#E3EEFC"/>
<path d="M120.861 121.844C121.22 122.533 121.471 123.273 121.607 124.038C121.958 126.439 121.958 128.878 121.607 131.279C121.239 134.741 120.564 138.163 119.589 141.505C119.221 144.533 118.408 147.491 117.177 150.282C113.492 147.78 110.992 142.47 107.922 139.223C106.738 137.994 105.378 136.721 103.931 135.361C99.808 131.455 95.1588 126.978 94.5886 121.8C94.4705 121.22 94.4705 120.623 94.5886 120.044C95.7625 119.636 96.9645 119.313 98.1852 119.079C103.514 118.377 108.923 118.555 114.194 119.605C115.91 119.621 117.618 119.842 119.282 120.264C119.643 120.398 119.972 120.608 120.244 120.881C120.517 121.154 120.727 121.482 120.861 121.844Z" fill="#F7967C"/>
<path d="M119.851 187.325C119.746 187.177 119.608 187.056 119.448 186.972C119.288 186.888 119.11 186.843 118.93 186.842H118.623H118.316C118.186 187.024 118.096 187.232 118.051 187.451C118.006 187.67 118.006 187.896 118.052 188.115C117.988 188.329 117.988 188.558 118.052 188.773C118.109 188.976 118.223 189.159 118.38 189.299C118.538 189.439 118.732 189.531 118.94 189.563C119.149 189.595 119.362 189.567 119.554 189.481C119.747 189.396 119.911 189.256 120.026 189.08C120.252 188.713 120.344 188.279 120.289 187.851C120.19 187.641 120.039 187.46 119.851 187.325Z" fill="#A9CCFF"/>
<path d="M116.961 116.713C116.961 118.249 117.444 119.697 117.444 121.101C117.437 122.08 117.244 123.048 116.874 123.954C116.2 125.294 115.344 126.535 114.33 127.64C112.663 129.571 111.391 128.738 109.417 127.64L102.575 124.919C101.91 124.627 101.265 124.29 100.645 123.91C99.8283 123.511 99.1877 122.823 98.847 121.979C98.6734 120.904 98.6734 119.807 98.847 118.732C98.847 116.23 99.1979 113.728 99.2418 111.227C99.0618 109.833 99.1512 108.418 99.5049 107.058C100.075 105.961 101.523 106.575 102.444 106.487L111.216 105.653C112.838 105.653 115.602 104.6 116.128 107.189C116.128 107.189 116.128 107.54 116.128 107.716L116.874 116.493L116.961 116.713Z" fill="#F7967C"/>
<path d="M116.086 107.366L116.832 116.143C116.252 117.04 115.431 117.756 114.463 118.206C112.901 118.872 111.179 119.07 109.507 118.776C107.83 118.53 106.234 117.894 104.848 116.918C103.461 115.942 102.323 114.655 101.524 113.159C100.516 110.877 101.261 109.648 103.279 108.77C105.148 107.893 107.18 107.414 109.244 107.366C110.735 107.366 112.226 107.629 113.63 107.366H114.507C115.033 107.326 115.56 107.326 116.086 107.366Z" fill="#DB6357"/>
<path d="M116.083 81.4272C114.626 80.3555 112.951 79.6188 111.177 79.2698C109.403 78.9209 107.574 78.9682 105.82 79.4084C102.333 80.3331 99.2486 82.3851 97.0477 85.2453C95.4728 87.4399 94.4543 89.9845 94.0799 92.6602C93.7056 95.3359 93.9865 98.0625 94.8985 100.606C95.8878 103.677 97.3691 106.567 99.2846 109.163C101.164 112.063 103.724 114.458 106.741 116.141C108.418 117.04 110.317 117.439 112.214 117.291C114.11 117.143 115.925 116.455 117.443 115.307C119.316 113.631 120.671 111.454 121.346 109.032C121.595 108.138 121.785 107.229 121.917 106.311C122.621 101.95 122.621 97.5052 121.917 93.1448C121.643 88.96 119.812 85.0297 116.785 82.1294L116.083 81.4272Z" fill="#F7967C"/>
<path d="M104.545 75.7652C108.215 75.3615 111.922 76.0651 115.189 77.7856C118.456 79.5061 121.134 82.1649 122.879 85.4202C123.48 86.814 123.85 88.2962 123.975 89.8089C123.975 91.6082 123.975 93.3198 123.975 95.1191C124.004 95.5453 123.913 95.9711 123.712 96.348C122.528 98.3667 121.563 94.0659 121.3 93.4953C120.491 91.9351 119.521 90.4641 118.405 89.1067C115.89 85.8708 112.493 83.4321 108.624 82.0849C106.717 86.3315 104.412 90.3873 101.738 94.1975C100.315 96.2942 99.3626 98.6743 98.9462 101.174C98.5298 103.674 98.6593 106.235 99.3259 108.68C99.6506 110.226 99.8413 111.797 99.8961 113.376C100.101 114.779 99.9782 116.211 99.5368 117.559C99.0954 118.907 98.3476 120.134 97.3522 121.144C96.2256 121.993 95.196 122.965 94.282 124.04C93.6679 124.918 93.2732 125.971 92.5714 126.805C91.5394 127.933 90.1063 128.611 88.5801 128.692C87.0532 128.838 85.519 128.5 84.1941 127.727C83.2433 126.932 82.5678 125.857 82.2643 124.655C81.3208 122.333 81.3208 119.735 82.2643 117.413C83.6239 114.517 86.6503 113.025 87.3521 109.777C87.9041 107.874 88.3434 105.939 88.6679 103.984C88.8873 102.03 88.8873 100.058 88.6679 98.1034C88.3297 94.6893 88.749 91.2427 89.896 88.0095C90.8959 84.7715 92.8113 81.8922 95.4108 79.7195C98.0103 77.5468 101.183 76.1734 104.545 75.7652Z" fill="#C9644D"/>
<path d="M132.967 184.338L127.266 254.951C127.098 256.893 126.169 258.689 124.681 259.948C123.193 261.206 121.268 261.824 119.327 261.665L6.43033 252.537C4.54878 252.305 2.83025 251.353 1.63604 249.88C0.44183 248.407 -0.135027 246.527 0.0267302 244.638L5.55312 174.068C5.72087 172.123 6.64851 170.322 8.13474 169.057C9.62098 167.792 11.5459 167.164 13.4918 167.31L126.213 176.438C128.153 176.595 129.953 177.514 131.218 178.994C132.484 180.474 133.113 182.395 132.967 184.338Z" fill="#474799"/>
<path d="M132.967 184.337L127.265 254.95C127.097 256.892 126.168 258.689 124.681 259.947C123.193 261.205 121.268 261.823 119.326 261.665L6.42969 252.537C9.45778 244.29 14.9182 237.158 22.0878 232.085C35.9915 223.308 54.8515 226.468 69.457 218.92C78.2227 213.427 85.5349 205.9 90.7731 196.976C95.7579 188.789 101.937 181.393 109.107 175.033L126.344 176.438C128.261 176.627 130.027 177.56 131.265 179.036C132.503 180.513 133.114 182.416 132.967 184.337Z" fill="#363672"/>
<path d="M55.1584 220.458H52.3075C52.2673 220.256 52.2673 220.047 52.3075 219.844C52.2986 219.683 52.2986 219.522 52.3075 219.361L56.3426 219.712V220.107C55.2439 222.133 54.2484 224.213 53.3601 226.339C52.9884 226.294 52.6379 226.142 52.3514 225.9C53.8865 222.872 55.1584 220.458 55.1584 220.458Z" fill="#E3EEFC"/>
<path d="M58.1396 222.916C57.8495 222.774 57.6098 222.546 57.4529 222.264C57.2961 221.981 57.2296 221.657 57.2624 221.336C57.2624 220.239 58.2273 219.58 59.5432 219.668C59.806 219.661 60.0673 219.709 60.3103 219.81C60.5534 219.91 60.7728 220.06 60.9545 220.25C61.1363 220.44 61.2763 220.666 61.3656 220.914C61.4548 221.161 61.4914 221.424 61.473 221.687C61.4381 222.006 61.312 222.308 61.1097 222.557C60.9075 222.806 60.6376 222.992 60.3326 223.091C60.6898 223.226 60.9918 223.476 61.1905 223.802C61.3892 224.128 61.4732 224.511 61.4291 224.89C61.4291 226.075 60.2888 226.69 58.973 226.602C57.6572 226.514 56.6922 225.68 56.7799 224.495C56.8146 224.123 56.9641 223.772 57.2078 223.488C57.4514 223.205 57.7771 223.005 58.1396 222.916ZM59.0607 225.856C59.2163 225.868 59.3727 225.849 59.521 225.8C59.6693 225.752 59.8064 225.674 59.9246 225.572C60.0428 225.47 60.1397 225.346 60.2097 225.206C60.2798 225.067 60.3215 224.915 60.3326 224.759C60.3701 224.439 60.2808 224.118 60.084 223.863C59.8872 223.609 59.5985 223.442 59.28 223.398C59.1151 223.386 58.9495 223.408 58.7932 223.462C58.6368 223.515 58.4929 223.6 58.37 223.711C58.2472 223.821 58.1479 223.956 58.0782 224.105C58.0084 224.255 57.9697 224.418 57.9642 224.583C57.9522 224.739 57.9711 224.895 58.0198 225.044C58.0685 225.192 58.1461 225.329 58.248 225.448C58.3499 225.566 58.4741 225.663 58.6136 225.733C58.7531 225.803 58.905 225.845 59.0607 225.856ZM60.3765 221.467C60.4094 221.333 60.4117 221.193 60.3833 221.058C60.3548 220.923 60.2963 220.795 60.212 220.686C60.1278 220.576 60.02 220.487 59.8966 220.425C59.7732 220.363 59.6374 220.329 59.4993 220.326C58.9291 220.326 58.4905 220.633 58.4028 221.336C58.3716 221.483 58.3737 221.635 58.4088 221.781C58.4439 221.927 58.5113 222.064 58.6058 222.18C58.7004 222.297 58.8199 222.391 58.9555 222.456C59.0911 222.521 59.2394 222.554 59.3896 222.554C59.5399 222.554 59.6882 222.521 59.8238 222.456C59.9594 222.391 60.0789 222.297 60.1734 222.18C60.268 222.064 60.3353 221.927 60.3705 221.781C60.4056 221.635 60.4076 221.483 60.3765 221.336V221.467Z" fill="#E3EEFC"/>
<path d="M71.6104 200.929C70.8209 203.694 69.5051 205.844 66.3472 205.318C63.455 204.903 60.7521 203.635 58.5839 201.675C57.2552 200.46 55.7821 199.414 54.1978 198.559C53.7727 198.349 53.4098 198.031 53.1452 197.638C52.9907 197.152 52.9907 196.631 53.1452 196.145C57.0277 176.864 63.4432 158.182 72.2244 140.585C72.8385 139.356 73.4964 138.128 74.1543 136.943C74.7662 135.824 75.4398 134.739 76.1719 133.695C77.0683 132.227 78.3011 130.993 79.7684 130.096C84.4176 127.507 86.7422 131.545 88.8036 135.231C91.2553 139.443 92.1407 144.386 91.3037 149.187C89.4938 155.924 86.8876 162.421 83.5404 168.541C80.4702 175.343 77.707 182.321 75.2947 189.387C73.9496 193.22 72.7215 197.067 71.6104 200.929Z" fill="#E3EEFC"/>
<path d="M68.7572 203.914C68.4063 206.679 67.9239 209.4 67.4414 212.121C65.994 220.327 64.5027 228.534 63.0554 236.741C62.6606 238.847 62.2659 241.129 61.915 243.06C61.8481 243.699 61.6052 244.307 61.2132 244.816C60.4676 245.606 58.3184 245.342 57.3974 245.211C56.4763 245.079 54.6342 244.377 53.0113 244.07C52.7046 244.011 52.4178 243.875 52.178 243.675C51.984 243.359 51.8921 242.991 51.9148 242.622C51.3225 228.202 51.7182 213.759 53.0991 199.393C53.5377 196.19 54.5465 191.933 58.0991 190.879C59.7841 190.619 61.5059 190.741 63.1379 191.234C64.7698 191.728 66.2704 192.582 67.5291 193.732C69.8099 196.058 69.1519 198.955 68.8449 201.939L68.7572 203.914Z" fill="#F7967C"/>
<path d="M52.0911 198.076C51.1262 199.217 49.6788 197.813 48.8454 199.569C48.5797 200.254 48.4457 200.984 48.4507 201.719C48.4507 204.001 47.7489 206.108 47.7051 208.477C47.7051 209.838 48.056 211.549 49.4156 211.857C50.1303 211.907 50.8447 211.755 51.4771 211.418C53.5236 210.666 55.7086 210.367 57.8816 210.541C60.0547 210.716 62.1642 211.359 64.065 212.427C65.0734 213.114 66.1456 213.702 67.2668 214.183C71.3897 215.543 71.1265 211.725 71.8721 209.136L73.4511 203.211C73.6683 202.436 73.6683 201.616 73.4511 200.841C73.2772 200.311 73.0571 199.797 72.7932 199.305C72.4711 198.481 72.3218 197.6 72.3546 196.716C72.3098 195.01 72.4421 193.304 72.7493 191.625C73.3766 189.499 73.7304 187.302 73.802 185.086C73.711 184.12 73.4132 183.185 72.9288 182.344C72.4444 181.504 71.7849 180.777 70.9949 180.215C69.9986 179.035 68.8976 177.948 67.7054 176.967C66.665 176.238 65.4665 175.766 64.2084 175.591C62.9503 175.415 61.6685 175.541 60.4684 175.958C58.1877 176.792 57.6614 179.117 57.0912 181.312C56.0824 185.042 55.0298 188.729 53.8455 192.371C53.4441 194.265 52.826 196.105 52.0034 197.857L52.0911 198.076Z" fill="#E3EEFC"/>
<path d="M62.0045 256.578H61.7852C61.6402 256.397 61.5355 256.188 61.4782 255.963C61.0747 254.933 61.0747 253.789 61.4782 252.759C61.5182 252.736 61.5636 252.724 61.6098 252.724C61.656 252.724 61.7013 252.736 61.7413 252.759C63.0133 254.12 62.4431 256.314 63.5396 257.762C64.0659 258.509 64.987 258.421 65.0747 257.411C65.1182 257.135 65.1182 256.854 65.0747 256.578C65.1428 254.132 64.922 251.686 64.4168 249.292C63.412 246.826 62.1005 244.496 60.5133 242.358C60.1254 241.623 59.5838 240.98 58.9254 240.472C58.267 239.965 57.5071 239.605 56.6974 239.418C56.1135 239.424 55.5385 239.562 55.0148 239.82C54.491 240.078 54.0318 240.451 53.671 240.91C52.2654 242.899 51.5142 245.277 51.5219 247.713C51.3026 249.512 51.0833 251.311 50.8201 253.067C50.8201 253.988 50.8201 254.91 50.5131 255.788C50.4277 256.047 50.3546 256.311 50.2938 256.578C50.2768 257.34 50.5248 258.084 50.9956 258.684C51.1379 258.927 51.335 259.132 51.5711 259.285C51.8073 259.437 52.0758 259.532 52.3552 259.562C52.5874 259.602 52.8248 259.602 53.057 259.562C53.057 259.562 53.4517 259.123 53.5833 259.211C53.9092 259.478 54.3051 259.646 54.7237 259.693C55.0125 259.758 55.312 259.758 55.6009 259.693C55.8162 259.647 56.0136 259.54 56.1692 259.384C56.3249 259.229 56.4321 259.031 56.4781 258.816C56.8509 259.076 57.2954 259.214 57.75 259.211C58.0662 259.294 58.3988 259.294 58.715 259.211C58.8691 259.149 59.0079 259.054 59.1215 258.932C59.2352 258.811 59.321 258.666 59.3729 258.509C60.1768 258.729 61.0251 258.729 61.8291 258.509C62.0922 258.509 62.4431 258.509 62.5308 258.026C62.6038 257.891 62.642 257.74 62.642 257.587C62.642 257.434 62.6038 257.283 62.5308 257.148L62.0045 256.578Z" fill="#F7967C"/>
<path d="M59.9004 257.588C59.4418 257.221 59.0928 256.735 58.8916 256.183C58.8916 256.183 58.6723 255.7 58.5407 255.437C58.4331 255.106 58.3452 254.769 58.2776 254.428C58.2776 254.428 57.8828 254.428 57.8828 254.428C57.9078 254.778 57.997 255.12 58.146 255.437C58.2442 255.723 58.3614 256.001 58.4969 256.271C58.714 256.827 59.0597 257.323 59.5056 257.719C59.5504 257.751 59.6041 257.769 59.6592 257.769C59.7142 257.769 59.7679 257.751 59.8127 257.719C59.8127 257.719 59.9442 257.675 59.9004 257.588Z" fill="#DB6357"/>
<path d="M56.6537 258.334C55.8517 257.448 55.3191 256.352 55.1185 255.174C55.1185 255.174 54.6799 255.174 54.7238 255.174C54.9136 256.377 55.4642 257.494 56.3028 258.378C56.4018 258.415 56.5108 258.415 56.6098 258.378C56.6098 258.378 56.7414 258.421 56.6537 258.334Z" fill="#DB6357"/>
<path d="M53.9781 258.421C53.214 257.73 52.7433 256.772 52.6623 255.744C52.6623 255.744 52.2676 255.744 52.2676 255.744C52.2898 256.274 52.4222 256.794 52.6563 257.27C52.8904 257.746 53.2211 258.168 53.6272 258.509H53.8904C53.8904 258.509 54.0658 258.465 53.9781 258.421Z" fill="#DB6357"/>
</svg>
