<svg width="60" height="60" viewBox="0 0 60 60" fill="none" xmlns="http://www.w3.org/2000/svg">
<path d="M26.25 11.25C26.25 6.69366 22.5563 3 18 3C13.4437 3 9.75 6.69366 9.75 11.25C9.75 15.8063 13.4437 19.5 18 19.5C22.5563 19.5 26.25 15.8063 26.25 11.25ZM12.75 11.25C12.75 8.3505 15.1005 6 18 6C20.8995 6 23.25 8.3505 23.25 11.25C23.25 14.1495 20.8995 16.5 18 16.5C15.1005 16.5 12.75 14.1495 12.75 11.25Z" fill="#212121"/>
<path d="M7.5 22.5H20.0476C19.5558 23.4304 19.1906 24.438 18.975 25.5H7.5C6.67158 25.5 6 26.1716 6 27V28.5C6 32.2773 9.29553 36.3414 15.2891 37.2927C14.3219 37.9503 13.5164 38.8278 12.9446 39.8535C6.61689 38.1357 3 33.2622 3 28.5V27C3 24.5147 5.01471 22.5 7.5 22.5Z" fill="#212121"/>
<path d="M23.6357 22.5C25.1489 20.6677 27.4381 19.5 30 19.5C32.562 19.5 34.851 20.6677 36.3642 22.5C37.0815 23.3686 37.6245 24.3864 37.9395 25.5C38.1417 26.2153 38.25 26.97 38.25 27.75C38.25 30.96 36.4167 33.7419 33.7398 35.1057C32.6757 35.6475 31.4787 35.9655 30.2106 35.9973C30.1407 35.9991 30.0705 36 30 36C29.9296 36 29.8594 35.9991 29.7895 35.9973C28.5213 35.9655 27.3242 35.6478 26.2603 35.1057C23.5834 33.7419 21.75 30.96 21.75 27.75C21.75 26.97 21.8582 26.2153 22.0606 25.5C22.3755 24.3864 22.9184 23.3686 23.6357 22.5ZM25.2552 25.5C24.9313 26.1819 24.75 26.9448 24.75 27.75C24.75 29.8922 26.033 31.7346 27.8726 32.5512C28.5229 32.8398 29.2427 33 30 33C30.7572 33 31.4772 32.8398 32.1273 32.5512C33.9669 31.7346 35.25 29.8922 35.25 27.75C35.25 26.9448 35.0688 26.1819 34.7448 25.5C34.0086 23.9505 32.5359 22.8188 30.7791 22.5574C30.525 22.5196 30.2649 22.5 30 22.5C29.7352 22.5 29.4751 22.5196 29.2208 22.5574C27.464 22.8188 25.9913 23.9505 25.2552 25.5Z" fill="#212121"/>
<path d="M47.0549 39.8535C46.4831 38.8278 45.6776 37.9503 44.7104 37.2927C50.7041 36.3414 53.9996 32.2773 53.9996 28.5V27C53.9996 26.1716 53.3279 25.5 52.4996 25.5H41.0246C40.8089 24.438 40.4438 23.4304 39.9521 22.5H52.4996C54.9848 22.5 56.9996 24.5147 56.9996 27V28.5C56.9996 33.2622 53.3828 38.1357 47.0549 39.8535Z" fill="#212121"/>
<path d="M43.4616 40.1118C42.6702 39.4194 41.634 39 40.5 39H19.5C18.2039 39 17.0358 39.5478 16.2147 40.4247C15.4613 41.2293 15 42.3108 15 43.5V45C15 50.9142 20.5785 57 30 57C39.4215 57 45 50.9142 45 45V43.5C45 42.1488 44.4045 40.9368 43.4616 40.1118ZM18 43.5C18 42.6717 18.6716 42 19.5 42H40.5C41.3283 42 42 42.6717 42 43.5V45C42 49.3128 37.7034 54 30 54C22.2965 54 18 49.3128 18 45V43.5Z" fill="#212121"/>
<path d="M42 3C46.5564 3 50.25 6.69366 50.25 11.25C50.25 15.8063 46.5564 19.5 42 19.5C37.4436 19.5 33.75 15.8063 33.75 11.25C33.75 6.69366 37.4436 3 42 3ZM42 6C39.1005 6 36.75 8.3505 36.75 11.25C36.75 14.1495 39.1005 16.5 42 16.5C44.8995 16.5 47.25 14.1495 47.25 11.25C47.25 8.3505 44.8995 6 42 6Z" fill="#212121"/>
</svg>
