<svg width="60" height="60" viewBox="0 0 60 60" fill="none" xmlns="http://www.w3.org/2000/svg">
<g clip-path="url(#clip0_76_3739)">
<path d="M13.7108 40.7291C14.3147 41.0457 14.8601 41.4078 15.3404 41.8612C16.6739 43.119 17.4398 44.6607 17.5982 46.5006C17.6213 46.7663 17.6317 47.0342 17.6319 47.3013C17.6346 49.842 17.6351 52.3828 17.6335 54.9235C17.6335 55.0127 17.6375 55.102 17.6306 55.1912C17.5964 55.6309 17.3021 55.9539 16.8687 56.0248C16.7726 56.0387 16.6755 56.0449 16.5784 56.0433C12.565 56.0443 8.55198 56.0443 4.53918 56.0433C4.42449 56.0451 4.30988 56.0361 4.19684 56.0165C4.00368 55.9825 3.82765 55.8835 3.6975 55.7356C3.56736 55.5876 3.49081 55.3996 3.48034 55.2021C3.47476 55.1219 3.47742 55.0416 3.47742 54.9613C3.47742 52.367 3.45433 49.7724 3.48352 47.1784C3.51536 44.3537 4.79393 42.2473 7.21282 40.8359L7.40866 40.7211C5.98626 39.5947 5.22623 38.1423 5.25091 36.3263C5.27108 34.8498 5.83791 33.5902 6.89278 32.5623C8.99772 30.5115 12.2844 30.5776 14.3548 32.7014C16.5004 34.9012 16.4046 38.7084 13.7108 40.7291ZM11.7372 41.9034C11.7619 42.026 11.7714 42.0865 11.7863 42.1459C12.2374 43.978 12.6885 45.8123 13.1479 47.6414C13.2275 47.9626 13.2042 48.2486 13.0555 48.5441C12.5036 49.6413 11.963 50.7428 11.4177 51.8425C11.3836 51.9149 11.3456 51.9854 11.3038 52.0536C11.2233 52.1824 11.1115 52.2884 10.979 52.3614C10.8465 52.4344 10.6977 52.472 10.5467 52.4708C10.3957 52.4695 10.2475 52.4294 10.1162 52.3542C9.98495 52.279 9.87489 52.1712 9.79649 52.041C9.75456 51.9731 9.72113 51.8997 9.68557 51.8269C9.14394 50.7353 8.60788 49.6408 8.05803 48.5535C7.90411 48.2492 7.87837 47.9569 7.96143 47.6264C8.42504 45.7882 8.87618 43.9464 9.33023 42.1058C9.34043 42.0461 9.34672 41.9859 9.34907 41.9254C9.28008 41.9369 9.23629 41.9409 9.1941 41.9521C6.88667 42.5706 5.26338 44.6797 5.25595 47.0877C5.24879 49.3793 5.25409 51.6707 5.25595 53.9623C5.25595 54.0482 5.26603 54.1341 5.27187 54.2256H15.8417C15.8467 54.1483 15.8542 54.0875 15.8542 54.0265C15.8526 51.6904 15.8503 49.3543 15.8473 47.0184C15.8436 44.897 14.4721 42.8256 12.2836 42.0659C12.1196 42.0089 11.9505 41.9663 11.7372 41.9034ZM10.5207 35.5258C9.31484 35.5384 8.21593 35.8738 7.20884 36.5249C7.07111 36.6137 7.02307 36.706 7.0459 36.8728C7.33064 38.8855 9.08927 40.135 10.8845 39.9645C12.5062 39.8107 13.8426 38.529 14.0531 36.9001C14.0741 36.7382 14.0265 36.6573 13.9026 36.5744C12.874 35.8863 11.7438 35.5363 10.5207 35.5258ZM10.5807 44.6784L10.5401 44.6754C10.521 44.7335 10.4979 44.7908 10.4833 44.8502C10.2482 45.801 10.0181 46.7529 9.77606 47.7019C9.75704 47.7693 9.75152 47.8399 9.75981 47.9095C9.76811 47.9791 9.79005 48.0464 9.82436 48.1073C10.0316 48.5109 10.2283 48.9198 10.4305 49.3258C10.4644 49.3938 10.5061 49.4575 10.5618 49.5538C10.8309 49.0108 11.0865 48.5029 11.3314 47.9904C11.3617 47.9275 11.355 47.8354 11.3388 47.7629C11.2691 47.4501 11.1902 47.1394 11.1133 46.8284C10.9364 46.111 10.7588 45.3943 10.5807 44.6784ZM13.3095 34.2525C12.7302 33.4202 11.588 32.7994 10.3862 32.8553C9.31245 32.9051 8.22893 33.5666 7.86855 34.1934C9.68026 33.5741 11.471 33.588 13.3095 34.2525Z" fill="black"/>
<path d="M52.6094 40.7284C53.1723 41.0228 53.6839 41.3557 54.1398 41.7692C55.498 43.0015 56.2923 44.5291 56.4868 46.3652C56.5155 46.64 56.5298 46.9161 56.5295 47.1924C56.5327 49.7794 56.5333 52.3656 56.5314 54.9509C56.5314 55.04 56.5346 55.1297 56.5269 55.2185C56.5129 55.4113 56.436 55.594 56.308 55.7379C56.1801 55.8819 56.0084 55.9789 55.8199 56.0139C55.707 56.0345 55.5924 56.0442 55.4776 56.0431C51.4634 56.0443 47.449 56.0443 43.4344 56.0431C43.3372 56.0447 43.2401 56.0388 43.1438 56.0254C42.699 55.954 42.4037 55.6218 42.3764 55.169C42.3716 55.0887 42.3748 55.0085 42.3748 54.9282C42.3748 52.351 42.3519 49.7733 42.3809 47.1964C42.4127 44.3731 43.6812 42.2589 46.0995 40.844C46.1603 40.8084 46.2216 40.7734 46.3057 40.7247C44.7552 39.4784 44.0004 37.8764 44.1798 35.8827C44.3062 34.4793 44.9335 33.3135 45.9844 32.3884C48.1647 30.469 51.3906 30.6641 53.3618 32.8144C55.3744 35.0086 55.286 38.6894 52.6094 40.7284ZM50.6353 41.8952C50.656 42.0039 50.6618 42.0467 50.6722 42.0882C51.1297 43.9374 51.5835 45.7874 52.0492 47.6345C52.135 47.9451 52.0984 48.2771 51.9471 48.561C51.4089 49.6245 50.8856 50.6953 50.3548 51.7631C50.3073 51.8586 50.2635 51.9568 50.2075 52.0473C50.0974 52.2275 49.9273 52.3624 49.7277 52.4278C49.528 52.4932 49.3118 52.4849 49.1176 52.4043C48.8852 52.3085 48.7331 52.1321 48.6222 51.9076C48.0598 50.7666 47.4946 49.6271 46.9267 48.489C46.7911 48.2177 46.7839 47.9495 46.8561 47.6594C47.3161 45.8198 47.7718 43.9792 48.2233 42.1377C48.2357 42.0719 48.2445 42.0055 48.2499 41.9388C48.2241 41.9358 48.1981 41.9346 48.1721 41.9351C48.1459 41.939 48.1201 41.9446 48.0946 41.952C47.143 42.2129 46.3166 42.6951 45.6375 43.415C44.6119 44.5007 44.14 45.8022 44.1485 47.3C44.1613 49.5212 44.1517 51.7403 44.1525 53.9607C44.1525 54.0469 44.1615 54.1331 44.1666 54.2262H54.7406C54.7457 54.132 54.7536 54.0533 54.7536 53.9749C54.7536 51.6654 54.764 49.3559 54.7513 47.0466C54.7391 44.8521 53.3713 42.8932 51.3351 42.1203C51.1228 42.0408 50.9028 41.9811 50.6353 41.8952ZM45.9279 36.6577C45.9435 36.7786 45.9544 36.8755 45.969 36.9719C46.259 38.8615 48.0185 40.2713 50.0427 39.9288C51.5784 39.6689 52.6845 38.5069 52.9475 36.9582C52.982 36.754 52.9258 36.6526 52.7641 36.548C51.3179 35.6113 49.7556 35.3134 48.0768 35.6841C47.3017 35.8543 46.59 36.1816 45.9279 36.6577ZM49.482 44.6798L49.4379 44.6715C49.4273 44.7047 49.4149 44.7376 49.4064 44.7716C49.158 45.7741 48.912 46.7771 48.6583 47.778C48.6317 47.8866 48.6583 47.9675 48.7031 48.056C48.9055 48.4619 49.1074 48.8683 49.3087 49.275C49.3504 49.3583 49.3942 49.4404 49.4395 49.5285C49.4738 49.498 49.4926 49.4889 49.4992 49.4749C49.7421 48.9897 49.9881 48.5062 50.2205 48.0162C50.2577 47.9383 50.255 47.8256 50.2343 47.7381C50.0823 47.0958 49.9209 46.4581 49.7628 45.8185C49.6688 45.4386 49.5752 45.0591 49.482 44.6798ZM46.7508 34.1996C47.6645 33.8897 48.5617 33.7334 49.4865 33.7398C50.4113 33.7463 51.2948 33.9331 52.2084 34.2462C50.7932 32.368 48.0312 32.47 46.7508 34.1996Z" fill="black"/>
<path d="M26.8536 44.2868C25.3532 43.0825 24.5955 41.5402 24.7136 39.6198C24.8036 38.1546 25.4301 36.9295 26.5243 35.9618C28.7224 34.0186 32.0029 34.2329 33.9571 36.4306C35.9185 38.6361 35.8193 42.2299 33.161 44.2876C33.2597 44.3446 33.3468 44.3946 33.4338 44.4455C35.1377 45.4205 36.266 46.8556 36.8187 48.7509C36.9942 49.3686 37.0813 50.0084 37.0771 50.651C37.0771 53.2995 37.0777 55.9481 37.0787 58.5968C37.0787 58.8754 37.031 59.1283 36.8282 59.3325C36.6722 59.4896 36.488 59.5857 36.2651 59.5953C36.168 59.5996 36.0706 59.5993 35.9732 59.5993H24.0369C23.9398 59.5993 23.8421 59.6017 23.745 59.595C23.5356 59.5824 23.3379 59.4929 23.1893 59.3435C23.0407 59.1941 22.9514 58.9951 22.9383 58.7839C22.9314 58.6953 22.9335 58.6056 22.9332 58.5163C22.9332 55.9204 22.9133 53.3258 22.9385 50.731C22.9651 47.9229 24.2389 45.8336 26.6299 44.419L26.8536 44.2868ZM24.7041 57.8015H35.3055V57.4731C35.3055 55.2356 35.3049 52.9981 35.3036 50.7604C35.3032 50.5289 35.2903 50.2975 35.2652 50.0673C35.0327 47.9264 33.5049 46.1173 31.4459 45.5416C31.3721 45.521 31.2954 45.5117 31.1938 45.4921C31.215 45.6016 31.2278 45.687 31.2485 45.7705C31.6961 47.5758 32.1409 49.3833 32.5968 51.1854C32.6825 51.5242 32.6515 51.8261 32.4936 52.1381C31.9472 53.2172 31.4154 54.3034 30.8777 55.3867C30.84 55.4673 30.7981 55.5458 30.7522 55.622C30.546 55.9463 30.1848 56.0938 29.8115 56.0124C29.5004 55.9447 29.3049 55.7448 29.1677 55.4662C28.617 54.3495 28.0685 53.2319 27.5067 52.121C27.3528 51.8162 27.3278 51.5216 27.4106 51.1932C27.8652 49.3884 28.3094 47.583 28.7577 45.7777C28.7784 45.6937 28.7924 45.6083 28.8166 45.4897C28.707 45.5141 28.6229 45.5283 28.5416 45.5518C27.437 45.8721 26.4655 46.5455 25.7732 47.4707C25.081 48.396 24.7055 49.523 24.7033 50.682C24.7033 52.9464 24.7033 55.2107 24.7033 57.4747L24.7041 57.8015ZM29.9465 39.095C28.777 39.1025 27.6781 39.4405 26.6686 40.0884C26.5314 40.1767 26.4662 40.2741 26.502 40.4363C26.5137 40.4898 26.515 40.5434 26.5251 40.595C26.899 42.5815 28.6773 43.8278 30.6522 43.4882C32.1048 43.2385 33.2977 41.9896 33.5017 40.5161C33.5264 40.3368 33.485 40.2241 33.3261 40.1208C32.3033 39.4544 31.1917 39.1017 29.9455 39.0934L29.9465 39.095ZM29.9895 53.1037C30.0357 53.047 30.0559 53.0298 30.0668 53.0079C30.3005 52.5393 30.5304 52.0688 30.7687 51.6026C30.8276 51.4873 30.8117 51.3811 30.7835 51.2676C30.5519 50.3359 30.3204 49.4045 30.089 48.4734C30.0715 48.4027 30.0418 48.335 30.0076 48.2374C29.9771 48.2957 29.9606 48.3176 29.9545 48.3396C29.7068 49.3303 29.461 50.3216 29.217 51.3133C29.199 51.3869 29.1905 51.4819 29.2205 51.5456C29.4651 52.0565 29.7204 52.5623 29.9885 53.1021L29.9895 53.1037ZM27.2984 37.7692C29.1326 37.1411 30.9401 37.1591 32.7696 37.8228C31.3347 35.9138 28.5703 36.042 27.2973 37.7663L27.2984 37.7692Z" fill="black"/>
<path d="M21.6975 7.66584L22.0485 6.81425C21.9998 6.76233 21.9521 6.70821 21.9013 6.6574C21.5026 6.25767 21.1011 5.86081 20.7048 5.45888C20.3576 5.1069 20.3609 4.68605 20.7125 4.33362C21.7171 3.3268 22.723 2.32114 23.7303 1.31666C24.0724 0.975231 24.5177 0.97457 24.8592 1.31314C25.2552 1.70538 25.6473 2.10071 26.0416 2.49427C26.0931 2.54575 26.147 2.59481 26.2073 2.65223L27.0589 2.30376V2.07079C27.0589 1.52829 27.0576 0.98579 27.0589 0.44285C27.0607 -0.105369 27.3542 -0.399937 27.9023 -0.400377C29.3025 -0.401697 30.7027 -0.401697 32.1031 -0.400377C32.6371 -0.400377 32.9352 -0.102509 32.9374 0.429431C32.9396 0.971931 32.9374 1.51443 32.9374 2.05737V2.30222L33.7864 2.65421C33.8406 2.60361 33.8943 2.55565 33.9453 2.50483C34.3398 2.11127 34.7455 1.72826 35.1237 1.31952C35.4225 0.99657 35.9697 1.00449 36.2784 1.31952C37.2671 2.33148 38.2757 3.3243 39.2752 4.3257C39.644 4.69529 39.6409 5.10777 39.2689 5.48198C38.8812 5.87181 38.4925 6.26046 38.1028 6.64794C38.0515 6.69919 38.0027 6.75287 37.947 6.81117C38.0625 7.09298 38.1758 7.36907 38.3003 7.67222H38.5281C39.0854 7.67222 39.6429 7.6874 40.2002 7.6676C40.6904 7.65022 41.0037 8.04401 41 8.46199C40.9869 9.8915 40.9865 11.321 40.9989 12.7505C41.0024 13.2125 40.6369 13.55 40.2127 13.5383C39.6486 13.5227 39.0838 13.5343 38.5186 13.5343H38.2986L37.9466 14.3908C37.9987 14.4455 38.0522 14.5036 38.1078 14.5595C38.5068 14.959 38.9058 15.3584 39.3049 15.7576C39.5399 15.9936 39.611 16.2715 39.4858 16.5828C39.442 16.6834 39.379 16.7746 39.3003 16.8512C38.2866 17.8703 37.2706 18.8871 36.2522 19.9016C35.9167 20.2351 35.4751 20.2276 35.138 19.8932C34.6905 19.4484 34.2472 19.0016 33.7928 18.548L32.9374 18.8999V19.1281C32.9374 19.6633 32.9374 20.1983 32.9374 20.734C32.9389 20.8218 32.9322 20.9095 32.9174 20.996C32.8474 21.357 32.5755 21.59 32.2074 21.5915C31.489 21.5962 30.7704 21.5931 30.0512 21.5931C29.3181 21.5931 28.5845 21.5792 27.851 21.5984C27.433 21.6091 27.0495 21.3047 27.0559 20.7976C27.0627 20.2476 27.0574 19.6976 27.0574 19.1476V18.9008L26.2132 18.5499C26.1654 18.5939 26.1159 18.6355 26.0702 18.6819C25.6757 19.0746 25.2704 19.4578 24.8915 19.8661C24.5657 20.2181 24.0363 20.21 23.7052 19.8719C22.7202 18.8663 21.7189 17.8776 20.7224 16.8828C20.5891 16.7508 20.4841 16.6028 20.4584 16.4127C20.4245 16.156 20.5059 15.9393 20.6912 15.7556C21.0872 15.3633 21.4769 14.9656 21.8718 14.5727C21.9286 14.5162 21.999 14.4735 22.0612 14.426L21.6978 13.5348H21.4711C20.9138 13.5348 20.3567 13.5363 19.799 13.5348C19.2991 13.5332 19.0017 13.2398 19.001 12.7448C18.9997 11.3154 18.9997 9.88614 19.001 8.45693C19.001 7.97053 19.287 7.67574 19.7781 7.66848C20.3352 7.66034 20.8923 7.66628 21.4502 7.66628L21.6975 7.66584ZM22.2586 4.9221C22.2986 4.96478 22.3466 5.0189 22.3976 5.07016C22.7446 5.41774 23.0931 5.76401 23.439 6.1127C23.7309 6.40683 23.7774 6.70668 23.5807 7.07054C23.3241 7.54873 23.1169 8.05181 22.9622 8.57199C22.8482 8.95147 22.5965 9.1356 22.199 9.13692C21.7004 9.13868 21.2018 9.13692 20.7028 9.13692H20.494C20.4448 9.41235 20.456 11.8925 20.5088 12.065H20.7411C21.2177 12.065 21.6942 12.0617 22.1712 12.0661C22.6183 12.0705 22.8419 12.2421 22.9725 12.6704C23.1196 13.162 23.3157 13.6375 23.558 14.0898C23.7826 14.5045 23.7415 14.7898 23.4126 15.1209C23.0605 15.4744 22.7074 15.8249 22.3565 16.1791C22.3171 16.2187 22.2841 16.2649 22.2619 16.2913C22.9514 16.9812 23.6293 17.6592 24.3162 18.346C24.3567 18.3075 24.4099 18.2593 24.4607 18.2085C24.8031 17.8669 25.1553 17.534 25.4843 17.1796C25.7723 16.8692 26.1897 16.8496 26.5027 17.0335C26.947 17.2929 27.4268 17.4748 27.9194 17.6227C28.3623 17.7547 28.5383 17.9918 28.5394 18.4597C28.5405 18.9437 28.5394 19.4277 28.5394 19.9117C28.5394 19.9812 28.546 20.0509 28.5496 20.1165C29.0365 20.1576 31.2859 20.1405 31.4571 20.0945V19.8554C31.4571 19.3789 31.4551 18.9024 31.4571 18.4254C31.4593 18.0024 31.6465 17.747 32.045 17.6297C32.5513 17.4813 33.0409 17.2807 33.5057 17.0311C33.8916 16.8234 34.1937 16.8683 34.5013 17.1743C34.8546 17.5263 35.2072 17.8787 35.5591 18.2314C35.6031 18.2754 35.6531 18.3143 35.6784 18.3365L37.7336 16.2818C37.6986 16.244 37.6517 16.1899 37.6016 16.1393C37.2495 15.7873 36.8944 15.4364 36.5455 15.0807C36.2654 14.7947 36.2223 14.4911 36.4135 14.138C36.6757 13.6548 36.885 13.1447 37.0377 12.6165C37.0855 12.4376 37.1977 12.2825 37.3527 12.1812C37.4999 12.0839 37.6656 12.0641 37.8368 12.0644C38.3208 12.0644 38.8048 12.0644 39.2889 12.0644C39.3659 12.0644 39.4429 12.056 39.5168 12.0516V9.13626H39.284C38.793 9.13626 38.3017 9.13736 37.8099 9.13626C37.3976 9.13494 37.1499 8.95323 37.0326 8.56055C36.8802 8.04769 36.6756 7.5518 36.422 7.08066C36.2185 6.70404 36.2643 6.40881 36.5666 6.10456C36.9186 5.75081 37.2707 5.40058 37.6227 5.04662C37.6682 5.00108 37.7094 4.95114 37.7224 4.93662L35.6588 2.8742C35.2905 3.24291 34.9028 3.63251 34.5134 4.02014C34.1935 4.3389 33.8973 4.38268 33.5013 4.17017C33.0498 3.92681 32.5743 3.73085 32.0824 3.58543C31.6393 3.45476 31.4582 3.21145 31.4569 2.751C31.4556 2.26702 31.4569 1.78304 31.4569 1.29906C31.4569 1.22932 31.4514 1.15958 31.4485 1.09359C30.9304 1.05223 28.7133 1.07027 28.5392 1.118V1.35428C28.5392 1.83826 28.5423 2.32224 28.5392 2.80622C28.5359 3.17515 28.3566 3.44794 28.029 3.54715C27.4678 3.7161 26.9246 3.93965 26.407 4.21461C26.1109 4.37212 25.8229 4.32153 25.571 4.10263C25.4495 3.99726 25.3404 3.87736 25.2264 3.76341C24.921 3.45806 24.6159 3.15205 24.3243 2.85924L22.2586 4.9221Z" fill="black"/>
<path d="M25 10.5853C25.0047 7.82952 27.2443 5.5962 30.0022 5.59863C32.7681 5.59995 35.0047 7.84245 35 10.6093C34.9953 13.3801 32.7485 15.605 29.9603 15.5986C27.2284 15.5915 24.9953 13.3349 25 10.5853ZM29.9907 14.3405C32.0377 14.3484 33.7403 12.6752 33.748 10.6483C33.7559 8.55202 32.0986 6.86405 30.0187 6.84999C27.9702 6.83612 26.2582 8.52015 26.252 10.5548C26.2458 12.6505 27.907 14.3325 29.9907 14.3405Z" fill="black"/>
<rect x="0.75" y="29.3486" width="58.5" height="29.5" stroke="black" stroke-width="1.5"/>
<rect x="29.4795" y="23.9277" width="1.7341" height="2.79787" fill="black"/>
<rect x="50" y="9.59863" width="2" height="9" transform="rotate(90 50 9.59863)" fill="black"/>
<rect x="19" y="9.59863" width="2" height="9" transform="rotate(90 19 9.59863)" fill="black"/>
<rect x="48" y="11.5986" width="2" height="17" fill="black"/>
<rect x="10" y="11.5986" width="2" height="17" fill="black"/>
</g>
<defs>
<clipPath id="clip0_76_3739">
<rect width="60" height="60" fill="white"/>
</clipPath>
</defs>
</svg>
