<svg width="60" height="60" viewBox="0 0 60 60" fill="none" xmlns="http://www.w3.org/2000/svg">
<g clip-path="url(#clip0_76_3727)">
<g clip-path="url(#clip1_76_3727)">
<path d="M54.6834 38.2597H51.994V23.0971H49.3517V38.2521H46.6624V23.0902H41.3571V38.2551H38.6711V23.0966H36.0244V38.273C35.0979 38.2802 34.1827 38.4839 33.3351 38.8717V23.0907H28.0219C28.0186 23.1691 28.0124 23.2469 28.0124 23.323C28.0124 31.4463 28.0111 39.5698 28.0085 47.6935C28.0085 47.8886 28.0505 47.9601 28.25 47.9508C28.6041 47.9334 28.9598 47.9455 29.3268 47.9455V50.6961H5.3396V50.9661C5.3396 51.7639 5.3396 52.5617 5.3396 53.3595C5.3396 54.2799 4.78829 54.8449 3.898 54.8472C3.50021 54.8472 3.10241 54.8472 2.69004 54.8472V56.2268H29.3274V58.9895C29.2534 58.993 29.1789 59 29.1033 59H1.49273C0.743075 59 0.218094 58.6214 0.0539321 57.9548C0.0203127 57.8066 0.00450513 57.6547 0.00686884 57.5025C0.00294689 56.1972 0.0169533 54.8896 0.000144913 53.586C-0.0116209 52.6384 0.694891 52.0275 1.46079 52.0868C1.85299 52.117 2.25471 52.092 2.67324 52.092V51.8394C2.67324 51.0195 2.67324 50.1998 2.67324 49.3803C2.67324 48.5413 3.22735 47.9537 4.03807 47.9444C4.82919 47.9351 5.61974 47.9444 6.41086 47.9444H6.64953V23.0733H6.40973C5.15695 23.0733 3.90417 23.0791 2.65138 23.0658C2.47904 23.0675 2.3081 23.0336 2.14851 22.9662C1.98893 22.8987 1.8439 22.799 1.72187 22.6728C1.59984 22.5467 1.50326 22.3967 1.43776 22.2314C1.37225 22.0662 1.33913 21.8892 1.34033 21.7105C1.32651 20.317 1.32651 18.9244 1.34033 17.5328C1.34649 16.9759 1.62047 16.5602 2.10119 16.2983C4.72068 14.8788 7.33868 13.4585 9.95518 12.0375C16.5818 8.44013 23.2067 4.84009 29.83 1.23734C30.4121 0.920306 30.9315 0.921467 31.5108 1.23734C36.9268 4.19092 42.3455 7.13521 47.7667 10.0702C51.5587 12.1284 55.351 14.1859 59.1437 16.2425C59.7242 16.5567 60.0077 17.0206 59.9998 17.7058C59.9858 19.0111 59.9965 20.3187 59.9959 21.6229C59.9959 22.4683 59.4564 23.0588 58.6434 23.0681C57.4108 23.0815 56.1782 23.0728 54.9456 23.0733H54.6794L54.6834 38.2597ZM4.00894 20.3001H57.3363C57.3363 19.6771 57.3391 19.0697 57.3301 18.4624C57.3301 18.4124 57.255 18.3462 57.2001 18.3172C56.8203 18.103 56.437 17.8945 56.0532 17.6866L45.4191 11.9178C40.575 9.29059 35.7317 6.6614 30.8894 4.03028C30.8247 3.98699 30.7496 3.96349 30.6726 3.96246C30.5956 3.96143 30.5199 3.98292 30.4541 4.02447C27.4196 5.67855 24.3833 7.32857 21.3451 8.97453L8.76179 15.8042C7.23409 16.6337 5.70658 17.464 4.17926 18.2951C4.11035 18.3329 4.01902 18.4177 4.01734 18.4821C4.00502 19.0831 4.00894 19.6841 4.00894 20.3001ZM19.9769 47.9392V23.0873H14.6991V47.9392H19.9769ZM9.3624 23.0954V47.9142H11.9868V23.0954H9.3624ZM25.3074 47.9183V23.0826H25.0625C24.3555 23.0826 23.6484 23.0913 22.9419 23.0774C22.7323 23.0733 22.6735 23.1268 22.6735 23.3515C22.6799 31.4523 22.6815 39.553 22.6786 47.6535V47.9183H25.3074Z" fill="black"/>
<path d="M35.2098 13.3318C35.2222 16.2401 32.9079 18.6641 30.1136 18.6714C27.3192 18.6787 25.0173 16.2917 25.0001 13.3587C24.9829 10.4257 27.2757 8.00899 30.0696 8.00002C31.4273 7.99658 32.7309 8.55595 33.6945 9.55546C34.6581 10.555 35.203 11.913 35.2098 13.3318ZM30.1211 10.6695C28.7118 10.6482 27.5708 11.8165 27.5418 13.3105C27.5139 14.7759 28.6469 15.9811 30.0701 16.0013C31.4649 16.0193 32.6284 14.8734 32.6494 13.4585C32.673 11.8782 31.5947 10.6892 30.1211 10.6695Z" fill="black"/>
<path d="M32.25 50C32.25 46.2721 35.2721 43.25 39 43.25H46C49.7279 43.25 52.75 46.2721 52.75 50V57.75H32.25V50Z" stroke="black" stroke-width="2.5"/>
<circle cx="42.5" cy="34.5" r="7.5" fill="#F5F5F5"/>
<circle cx="43" cy="35" r="3.75" stroke="black" stroke-width="2.5"/>
</g>
</g>
<defs>
<clipPath id="clip0_76_3727">
<rect width="60" height="60" fill="white"/>
</clipPath>
<clipPath id="clip1_76_3727">
<rect width="60" height="60" fill="white"/>
</clipPath>
</defs>
</svg>
