<svg width="606" height="342" viewBox="0 0 606 342" fill="none" xmlns="http://www.w3.org/2000/svg">
<path d="M527.077 228.039C531.415 231.952 534.617 237.175 536.29 243.064C537.962 248.953 538.032 255.251 536.49 261.183C542.654 259.679 549.099 260.513 554.777 263.548C557.461 265.481 559.75 268.007 561.499 270.964C563.248 273.922 564.418 277.246 564.937 280.727C565.953 287.693 566.074 294.781 565.295 301.783C569.395 301.043 573.601 301.83 577.248 304.017C580.625 306.645 581.551 313.247 577.905 315.448C575.852 317.173 573.437 318.302 570.883 318.733H60.1812C53.1591 318.733 46.137 318.733 39.1149 318.963C34.0649 318.963 29.3437 321.328 25.3396 316.302C23.7302 314.068 22.8545 311.302 22.8545 308.452C22.8545 305.602 23.7302 302.835 25.3396 300.601C27.0303 298.438 29.2734 296.884 31.7778 296.14C34.2822 295.396 36.9322 295.497 39.3838 296.429C36.0213 292.068 33.5821 286.941 32.2422 281.417C31.3158 275.8 33.288 269.165 38.0391 266.898C39.9377 266.079 42.0003 265.83 44.0154 266.176C46.817 266.613 49.4595 267.873 51.665 269.822C49.3234 262.216 48.7079 254.097 49.8722 246.171C50.3514 241.349 52.1902 236.812 55.1313 233.196C58.6358 229.797 63.1897 227.999 67.8607 228.17C72.4832 228.384 77.0621 229.245 81.4866 230.732C81.0197 224.161 81.7824 217.554 83.7277 211.319C88.8673 197.982 101.447 198.179 111.278 204.355C111.009 200.413 109.934 196.537 110.023 192.595C110.029 188.014 110.975 183.493 112.791 179.37C114.607 175.246 117.246 171.626 120.512 168.78C123.022 166.611 125.901 165.018 128.98 164.092C132.06 163.167 135.276 162.929 138.44 163.393C135.811 162.999 144.178 150.713 145.492 149.695C149.098 147.168 153.191 145.604 157.445 145.129C166.081 143.651 174.746 144.603 183.382 143.946C214.399 141.516 246.133 143.454 277.209 143.454H426.765C438.867 143.454 452.075 141.516 459.456 154.786C466.089 166.678 472.872 179.226 472.185 193.778C479.147 186.485 491.578 189.704 497.644 197.949C503.71 206.194 504.845 217.658 504.636 228.137C507.624 221.863 515.812 221.567 521.639 224.557C523.578 225.46 525.405 226.63 527.077 228.039Z" fill="#86CEA3"/>
<path d="M413.827 93.5241C414.773 94.9879 415.622 96.5248 416.367 98.1228C416.576 99.9748 416.636 101.844 416.546 103.707C416.911 105.798 417.674 107.779 418.787 109.521C419.385 110.605 420.012 111.656 420.64 112.806C423.853 118.368 427.578 123.553 431.756 128.278C437.082 134.373 443.721 138.893 451.059 141.417C464.984 146.016 481.09 141.746 493.311 150.122C497.883 153.407 501.319 157.809 505.891 160.896C519.517 170.061 538.223 163.36 552.506 171.375C557.855 174.331 562.158 179.193 567.895 181.229C571.559 182.464 575.47 182.5 579.152 181.333C582.834 180.167 586.128 177.848 588.633 174.66C590.356 172.531 592.372 170.713 594.609 169.273C596.855 167.872 598.95 166.198 600.854 164.28C602.621 162.363 603.991 160.051 604.873 157.5C605.754 154.95 606.126 152.22 605.964 149.498C604.992 140.938 601.655 132.912 596.402 126.504C594.818 124.369 593.115 122.201 591.681 119.934C590.704 118.511 589.901 116.954 589.29 115.303C587.258 109.521 589.589 104.298 589.918 98.8784C590.605 87.5785 581.969 74.3734 568.612 66.1941C562.636 62.5479 561.68 61.6282 560.544 56.7338C558.882 52.0055 556.07 47.8696 552.417 44.7769C549.45 41.6396 546.039 39.0544 542.317 37.1232C534.906 33.9634 526.689 33.9634 519.278 37.1232C516.446 38.5609 513.417 39.4711 510.314 39.8168C502.156 40.211 492.893 33.4442 484.974 34.2983C483.025 34.5045 481.155 35.2517 479.54 36.4697C477.925 37.6878 476.618 39.3368 475.741 41.2621C470.661 51.3795 466.777 52.4963 455.661 57.6864L426.317 71.647C421.925 73.7493 417.054 75.4902 415.201 79.8591C413.677 83.5381 411.855 89.3523 413.827 93.5241Z" fill="#6B9E84"/>
<path d="M456.587 110.014C456.228 109.62 456.587 109.292 457.035 109.193C457.296 109.11 457.572 109.099 457.838 109.162C458.104 109.225 458.352 109.36 458.559 109.554C459.527 110.665 460.712 111.519 462.025 112.051C462.982 112.426 463.999 112.582 465.013 112.511C461.15 108.006 458.726 102.24 458.111 96.0865C458.111 96.3821 460.412 100.225 460.71 100.85C461.906 103.281 463.254 105.619 464.744 107.846C467.68 112.36 471.263 116.32 475.352 119.573C477.563 121.314 487.305 130.774 489.665 128.475C490.404 127.618 490.875 126.525 491.01 125.354C491.625 122.105 492.034 118.812 492.235 115.5C492.474 112.215 492.026 108.405 492.534 105.054C493.24 99.5576 493.619 94.0164 493.67 88.4657C493.67 86.1334 493.012 83.3085 495.672 84.0968C497.375 84.6224 499.407 85.5093 499.496 87.7758C499.4 90.0395 499.14 92.2912 498.719 94.5098C498.451 96.9734 498.241 99.437 498.092 101.934C497.524 111.57 497.524 121.237 498.092 130.873C498.48 138.33 499.198 145.786 500.094 153.177C500.632 157.546 500.094 167.335 505.861 167.926C507.257 167.806 508.612 167.345 509.827 166.578C511.041 165.811 512.085 164.757 512.883 163.492C520.115 154.918 526.539 145.753 533.173 136.654C538.91 128.804 543.9 120.69 548.95 112.248C549.458 111.394 550.175 110.408 551.131 110.507C551.586 110.632 551.981 110.942 552.237 111.375C552.492 111.808 552.588 112.331 552.506 112.839C552.298 113.852 551.844 114.783 551.191 115.533C548.651 119.048 546.201 122.661 543.9 126.373C543.034 127.752 539.298 133.37 540.464 135.308C540.553 135.441 540.67 135.549 540.806 135.624C540.941 135.698 541.09 135.736 541.241 135.735C542.159 135.754 543.069 135.54 543.9 135.11C545.321 134.387 546.698 133.564 548.024 132.647C549.693 131.71 551.284 130.611 552.775 129.362C554.796 127.399 556.943 125.599 559.199 123.975C559.648 123.565 560.169 123.263 560.73 123.087C561.291 122.912 561.879 122.867 562.456 122.957C564.429 123.614 560.424 127.161 560.126 127.391C558.183 128.869 556.331 130.676 554.418 132.088C550.665 135.3 546.413 137.738 541.868 139.282C538.163 140.432 535.115 140.695 533.202 144.538C530.87 148.304 528.131 151.745 525.045 154.787C521.429 159.09 518.202 163.787 515.005 168.452C505.144 182.774 504.546 195.749 506.459 213.29C508.58 232.67 511.449 251.952 513.511 271.366C514.586 281.516 515.453 291.699 515.871 301.882C515.781 305.951 515.93 310.022 516.32 314.069C516.857 317.354 519.308 321.296 518.381 324.745C516.738 330.493 508.431 327.274 504.277 327.471C501.498 327.471 497.554 330.033 494.835 328.752C491.01 326.88 491.847 320.737 493.102 316.368C504.128 278.198 500.453 236.941 495.253 197.326C493.722 187.082 492.724 176.751 492.265 166.382C492.086 157.743 494.387 149.104 492.086 140.53C491.821 139.372 491.398 138.264 490.831 137.246C490.172 136.242 489.387 135.347 488.5 134.585C484.466 130.972 479.864 128.015 475.741 124.73C473.828 123.088 472.006 121.445 470.243 119.573C469.089 118.589 468.081 117.415 467.254 116.091C467.048 115.533 466.765 115.013 466.418 114.547C465.79 113.923 465.372 114.087 464.505 114.055C463.005 114.009 461.528 113.627 460.167 112.933C458.805 112.238 457.587 111.245 456.587 110.014Z" fill="#EC8161"/>
<path d="M413.826 93.5242C414.772 94.988 415.621 96.5249 416.366 98.123C416.575 99.975 416.635 101.844 416.545 103.707C416.909 105.798 417.673 107.779 418.786 109.521C419.384 110.605 420.011 111.657 420.639 112.806C423.852 118.368 427.577 123.553 431.755 128.278C433.593 127.268 435.49 126.39 437.432 125.65C441.824 124.467 446.305 123.731 450.819 123.449C455.349 123.184 459.674 121.292 463.13 118.062C465.491 115.533 467.014 111.722 469.525 109.423C472.035 107.123 476.427 109.094 479.475 109.423C487.961 110.441 492.384 102.853 500.153 101.408C503.779 100.757 507.493 101.701 510.492 104.036C511.956 105.218 513.211 106.696 514.586 108.01C517.16 110.393 520.172 112.135 523.417 113.116C526.661 114.097 530.061 114.294 533.381 113.693C534.614 113.352 535.876 113.154 537.146 113.102C538.561 113.203 539.943 113.616 541.21 114.317C544.874 116.393 547.822 119.726 549.607 123.811C551.668 128.015 552.595 133.107 555.583 136.72C559.348 141.187 565.563 142.436 569.597 146.574C573.631 150.713 575.036 158.236 579.727 162.145C580.73 162.963 581.825 163.636 582.984 164.148C586.809 165.889 591.171 166.349 594.518 169.109C596.765 167.708 598.86 166.033 600.763 164.116C602.53 162.199 603.9 159.887 604.782 157.336C605.664 154.786 606.036 152.056 605.873 149.334C604.901 140.774 601.564 132.748 596.311 126.34C594.727 124.205 593.024 122.037 591.59 119.77C590.614 118.347 589.81 116.79 589.199 115.139C587.167 109.357 589.498 104.134 589.827 98.7143C590.514 87.4144 581.878 74.2093 568.521 66.0301C562.545 62.3839 561.589 61.4641 560.453 56.5697C558.791 51.8414 555.979 47.7055 552.326 44.6129C549.36 41.4755 545.948 38.8904 542.226 36.9592C534.815 33.7993 526.598 33.7993 519.187 36.9592C516.356 38.3968 513.326 39.3071 510.223 39.6528C502.065 40.0469 492.802 33.2801 484.884 34.1342C482.934 34.3404 481.064 35.0876 479.449 36.3057C477.834 37.5237 476.527 39.1727 475.65 41.0981C470.57 51.2154 466.686 52.3322 455.57 57.5223L426.226 71.4829C421.834 73.5852 416.963 75.3262 415.111 79.695C413.676 83.5383 411.854 89.3525 413.826 93.5242Z" fill="#86CEA3"/>
<path d="M477.772 244.463C479.111 248.221 479.483 252.313 478.847 256.288C479.874 254.254 481.315 252.508 483.056 251.186C484.798 249.864 486.793 249.002 488.887 248.667C490.967 248.423 493.069 248.782 494.983 249.71C496.897 250.638 498.556 252.102 499.794 253.956C503.888 259.902 503.47 268.574 502.782 276.293C503.629 275.195 504.695 274.326 505.898 273.757C507.101 273.187 508.407 272.93 509.715 273.008C511.422 273.508 512.956 274.551 514.126 276.006C515.295 277.461 516.048 279.264 516.289 281.187C516.84 285.211 516.564 289.319 515.482 293.21C517.56 292.582 519.745 292.508 521.855 292.994C523.965 293.479 525.939 294.511 527.614 296.002C531.173 299.276 533.521 303.867 534.217 308.911C534.728 311.604 534.467 314.404 533.47 316.927C531.169 321.985 525.104 320.803 521.159 320.803H104.076C96.7845 320.803 89.5234 321 82.2323 320.803C80.051 320.803 78.1386 321.755 76.2561 321.755C71.0866 321.755 64.8712 320.671 62.7796 314.923C60.9867 310.061 63.1979 304.346 66.1562 300.404C69.5328 295.871 74.5229 292.323 79.4533 293.637C78.9897 291.645 78.9962 289.555 79.472 287.566C79.9478 285.578 80.8773 283.755 82.1726 282.271C83.4188 280.94 85.0057 280.06 86.7203 279.748C88.4349 279.437 90.195 279.71 91.7644 280.53C91.4619 274.23 93.1046 268.003 96.426 262.858C100.609 257.208 111.904 255.007 117.701 257.372C118.183 252.142 119.361 247.017 121.198 242.163C122.081 239.436 123.796 237.128 126.05 235.631C128.305 234.134 130.961 233.541 133.568 233.951C136.413 234.075 139.211 234.788 141.816 236.054C142.832 236.513 148.778 239.338 148.808 240.751C148.189 233.408 149.215 226.009 151.796 219.202C154.784 212.633 161.747 207.672 168.231 209.611C162.553 190.164 191.568 193.81 201.459 193.186C225.902 191.413 250.912 192.825 275.475 192.825H393.417C403.008 192.825 412.899 189.869 419.204 200.347C422.192 205.537 422.969 212.206 426.435 217.166C429.284 215.197 432.561 214.104 435.924 214C439.287 213.896 442.615 214.785 445.56 216.574C448.388 218.498 450.719 221.187 452.331 224.385C453.942 227.583 454.78 231.182 454.763 234.838C458.05 234.411 460.47 232.276 463.966 232.572C467.717 232.901 471.236 234.695 473.887 237.63C475.607 239.58 476.931 241.909 477.772 244.463Z" fill="#6B9E84"/>
<path d="M243.592 311.244H162.285V318.996H243.592V311.244Z" fill="#6981B7"/>
<path d="M464.117 56.3066H103.24V334.927H464.117V56.3066Z" fill="#FF9100"/>
<path d="M116.596 56.3066H103.239V60.2485H116.596V56.3066Z" fill="#FFD6A0"/>
<path d="M112.383 58.7051H103.239V76.0819H112.383V58.7051Z" fill="#FFD6A0"/>
<path d="M116.596 74.5703H103.239V91.9471H116.596V74.5703Z" fill="#FFD6A0"/>
<path d="M112.383 90.4033H103.239V107.78H112.383V90.4033Z" fill="#FFD6A0"/>
<path d="M116.596 106.27H103.239V123.646H116.596V106.27Z" fill="#FFD6A0"/>
<path d="M112.383 122.102H103.239V139.478H112.383V122.102Z" fill="#FFD6A0"/>
<path d="M116.596 137.968H103.239V155.345H116.596V137.968Z" fill="#FFD6A0"/>
<path d="M112.383 153.801H103.239V171.178H112.383V153.801Z" fill="#FFD6A0"/>
<path d="M116.596 169.634H103.239V187.011H116.596V169.634Z" fill="#FFD6A0"/>
<path d="M112.383 185.5H103.239V202.877H112.383V185.5Z" fill="#FFD6A0"/>
<path d="M116.596 201.333H103.239V218.71H116.596V201.333Z" fill="#FFD6A0"/>
<path d="M112.383 217.198H103.239V234.575H112.383V217.198Z" fill="#FFD6A0"/>
<path d="M116.596 233.031H103.239V250.408H116.596V233.031Z" fill="#FFD6A0"/>
<path d="M112.383 248.897H103.239V266.274H112.383V248.897Z" fill="#FFD6A0"/>
<path d="M116.596 264.73H103.239V282.107H116.596V264.73Z" fill="#FFD6A0"/>
<path d="M112.383 280.563H103.239V297.94H112.383V280.563Z" fill="#FFD6A0"/>
<path d="M116.596 296.429H103.239V313.806H116.596V296.429Z" fill="#FFD6A0"/>
<path d="M112.383 312.262H103.239V329.639H112.383V312.262Z" fill="#FFD6A0"/>
<path d="M464.116 56.3066H450.759V60.2485H464.116V56.3066Z" fill="#FFD6A0"/>
<path d="M464.086 58.7051H454.942V76.0819H464.086V58.7051Z" fill="#FFD6A0"/>
<path d="M464.116 74.5703H450.759V91.9471H464.116V74.5703Z" fill="#FFD6A0"/>
<path d="M464.086 90.4033H454.942V107.78H464.086V90.4033Z" fill="#FFD6A0"/>
<path d="M464.116 106.27H450.759V123.646H464.116V106.27Z" fill="#FFD6A0"/>
<path d="M464.086 122.103H454.942V139.479H464.086V122.103Z" fill="#FFD6A0"/>
<path d="M464.116 137.968H450.759V155.345H464.116V137.968Z" fill="#FFD6A0"/>
<path d="M464.086 153.801H454.942V171.178H464.086V153.801Z" fill="#FFD6A0"/>
<path d="M464.116 169.634H450.759V187.011H464.116V169.634Z" fill="#FFD6A0"/>
<path d="M464.086 185.5H454.942V202.877H464.086V185.5Z" fill="#FFD6A0"/>
<path d="M464.116 201.333H450.759V218.71H464.116V201.333Z" fill="#FFD6A0"/>
<path d="M464.086 217.198H454.942V234.575H464.086V217.198Z" fill="#FFD6A0"/>
<path d="M464.116 233.031H450.759V250.408H464.116V233.031Z" fill="#FFD6A0"/>
<path d="M464.086 248.897H454.942V266.274H464.086V248.897Z" fill="#FFD6A0"/>
<path d="M464.116 264.73H450.759V282.107H464.116V264.73Z" fill="#FFD6A0"/>
<path d="M464.086 280.563H454.942V297.94H464.086V280.563Z" fill="#FFD6A0"/>
<path d="M464.116 296.429H450.759V313.806H464.116V296.429Z" fill="#FFD6A0"/>
<path d="M464.086 312.262H454.942V329.639H464.086V312.262Z" fill="#FFD6A0"/>
<path d="M143.7 183.562C143.7 185.661 143.134 187.712 142.073 189.457C141.013 191.202 139.505 192.562 137.742 193.365C135.978 194.168 134.037 194.378 132.165 193.968C130.293 193.559 128.573 192.549 127.223 191.065C125.874 189.581 124.954 187.69 124.582 185.632C124.21 183.574 124.401 181.441 125.131 179.502C125.862 177.563 127.099 175.906 128.686 174.74C130.273 173.574 132.139 172.952 134.048 172.952C136.608 172.952 139.063 174.07 140.873 176.06C142.683 178.05 143.7 180.748 143.7 183.562Z" fill="#E3EEFC"/>
<path d="M134.048 194.173H139.098L136.588 195.619L134.048 197.064L131.508 195.619L128.998 194.173H134.048Z" fill="#2C2A4C"/>
<path d="M139.098 192.628H128.998V194.173H139.098V192.628Z" fill="#2C2A4C"/>
<path d="M130.251 176.302C130.138 176.23 130.009 176.192 129.878 176.192C129.747 176.192 129.618 176.23 129.504 176.302C128.376 176.939 127.46 177.953 126.891 179.199C126.321 180.445 126.127 181.858 126.337 183.233C126.337 183.66 127.443 183.628 127.383 183.233C127.171 181.931 127.347 180.587 127.885 179.404C128.424 178.22 129.295 177.259 130.371 176.664C130.461 176.598 130.431 176.401 130.251 176.302Z" fill="white"/>
<path d="M141.009 185.139C140.867 186.259 140.431 187.31 139.754 188.162C139.426 188.589 140.442 188.753 140.681 188.457C141.422 187.534 141.9 186.391 142.055 185.172C142.115 184.876 141.069 184.843 141.009 185.139Z" fill="white"/>
<path d="M140.114 201.728H139.278C137.726 201.728 136.469 203.11 136.469 204.815V208.166C136.469 209.871 137.726 211.254 139.278 211.254H140.114C141.666 211.254 142.923 209.871 142.923 208.166V204.815C142.923 203.11 141.666 201.728 140.114 201.728Z" fill="#474799"/>
<path d="M139.697 207.509H136.321C135.356 207.385 134.473 206.852 133.859 206.025C133.245 205.197 132.949 204.138 133.034 203.075V194.994C133.034 194.698 133.141 194.414 133.331 194.204C133.522 193.995 133.78 193.877 134.05 193.877C134.319 193.877 134.577 193.995 134.768 194.204C134.959 194.414 135.066 194.698 135.066 194.994V202.943C135.066 204.257 135.723 205.177 136.321 205.177H139.697C139.933 205.222 140.147 205.357 140.301 205.558C140.455 205.759 140.54 206.014 140.54 206.277C140.54 206.54 140.455 206.795 140.301 206.996C140.147 207.198 139.933 207.333 139.697 207.378V207.509Z" fill="#2C2A4C"/>
<path d="M250.616 129.164H155.295L167.038 105.382H238.873L250.616 129.164Z" fill="#FFD6A0"/>
<path d="M207.288 129.164H198.623H155.295V142.041H198.623H207.288H250.616V129.164H207.288Z" fill="#FFD6A0"/>
<path d="M171.162 142.14C171.162 144.833 167.994 147.067 163.96 147.297H163.213C162.432 147.29 161.653 147.213 160.883 147.067C157.626 146.41 155.295 144.439 155.295 142.107C155.295 139.808 157.685 137.902 160.883 137.245C161.651 137.083 162.431 137.006 163.213 137.015H163.96C167.965 137.245 171.102 139.413 171.162 142.074V142.14Z" fill="#FFD6A0"/>
<path d="M187.059 142.139C187.059 144.767 184.071 146.935 180.157 147.263H179.111C178.431 147.259 177.752 147.204 177.079 147.099C173.672 146.508 171.103 144.471 171.103 142.073C171.103 139.708 173.672 137.737 177.079 137.146C177.755 137.096 178.434 137.096 179.111 137.146H180.157C184.011 137.474 186.999 139.61 187.059 142.205V142.139Z" fill="#FFD6A0"/>
<path d="M203.045 142.139C203.045 144.702 200.207 146.804 196.471 147.231C196.014 147.265 195.555 147.265 195.097 147.231C194.53 147.266 193.961 147.266 193.394 147.231C189.808 146.738 187.148 144.669 187.148 142.172C187.148 139.709 189.868 137.705 193.394 137.212C193.96 137.161 194.53 137.161 195.097 137.212H196.471C200.147 137.639 202.956 139.709 203.045 142.238V142.139Z" fill="#FFD6A0"/>
<path d="M218.824 142.139C218.824 144.636 216.165 146.705 212.609 147.198C212.041 147.231 211.473 147.231 210.905 147.198C210.438 147.232 209.969 147.232 209.501 147.198C205.796 146.771 202.957 144.669 202.957 142.106C202.957 139.577 205.945 137.508 209.501 137.081H210.905C211.472 137.032 212.042 137.032 212.609 137.081C216.135 137.573 218.764 139.577 218.824 142.041V142.139Z" fill="#FFD6A0"/>
<path d="M234.719 142.14C234.719 144.538 232.209 146.574 228.743 147.166C228.07 147.273 227.391 147.328 226.711 147.33H225.665C221.781 147.001 218.763 144.833 218.763 142.205C218.763 139.61 221.751 137.475 225.665 137.147H226.711C227.388 137.094 228.067 137.094 228.743 137.147C232.12 137.738 234.719 139.709 234.719 142.074V142.14Z" fill="#FFD6A0"/>
<path d="M250.616 142.14C250.616 144.472 248.255 146.443 245.028 147.1C244.248 147.245 243.459 147.322 242.667 147.33H241.89C237.827 147.1 234.659 144.866 234.659 142.172C234.659 139.512 237.886 137.344 241.89 137.114H242.608C243.399 137.106 244.19 137.183 244.968 137.344C248.166 138.001 250.496 139.906 250.556 142.205L250.616 142.14Z" fill="#FFD6A0"/>
<path d="M175.226 105.415L164.2 129.296V129.624V147.428H163.453C162.672 147.421 161.892 147.344 161.122 147.198V128.967L172.089 105.514L175.226 105.415Z" fill="#FF9100"/>
<path d="M186.911 105.415L180.217 129.296V129.493V147.395H179.172C178.492 147.391 177.813 147.336 177.14 147.231V129.066L183.773 105.481L186.911 105.415Z" fill="#FF9100"/>
<path d="M198.621 105.415L196.38 129.165V147.231C195.922 147.265 195.463 147.265 195.005 147.231C194.438 147.266 193.869 147.266 193.302 147.231V129.066L195.513 105.448L198.621 105.415Z" fill="#FF9100"/>
<path d="M212.608 129.099V147.199C212.041 147.231 211.472 147.231 210.905 147.199C210.437 147.232 209.968 147.232 209.5 147.199V129.296L207.289 105.547H210.277L212.608 129.099Z" fill="#FF9100"/>
<path d="M228.803 129.001V147.166C228.13 147.273 227.451 147.328 226.771 147.33H225.725V129.296V129.099L219.062 105.35H222.229L228.803 129.001Z" fill="#FF9100"/>
<path d="M245.028 128.869V147.1C244.248 147.245 243.459 147.322 242.668 147.33H241.891V129.526V129.296L230.745 105.547H234.122L245.028 128.869Z" fill="#FF9100"/>
<path d="M249.033 128.737H156.61C156.191 128.737 156.191 129.526 156.61 129.526H249.033C249.451 129.526 249.451 128.737 249.033 128.737Z" fill="#2C2A4C"/>
<path d="M130.612 295.346L134.407 315.055C134.627 316.182 135.192 317.192 136.008 317.915C136.824 318.639 137.841 319.032 138.889 319.029H145.045C146.092 319.026 147.107 318.631 147.922 317.908C148.737 317.186 149.303 316.179 149.527 315.055L153.292 295.346H130.612Z" fill="#EC8161"/>
<path d="M163.42 278.199C163.264 277.875 163.017 277.616 162.714 277.462C162.412 277.307 162.072 277.266 161.747 277.345C163.257 274.445 164.213 271.237 164.556 267.917C164.678 265.747 164.108 263.597 162.942 261.84C161.866 260.296 159.446 260.198 159.028 258.555C158.609 256.913 158.788 254.679 158.43 252.807C158.071 250.934 156.846 248.964 155.233 249.128C154.439 249.309 153.68 249.643 152.991 250.113C152.752 250.113 152.483 250.343 152.304 250.113C152.153 249.934 152.068 249.7 152.065 249.456C151.589 246.683 150.181 244.209 148.121 242.525C147.344 241.803 146.119 241.244 145.491 242.164C144.864 243.084 145.043 243.609 144.475 243.609C144.257 243.575 144.057 243.459 143.908 243.281C143.151 242.379 142.223 241.672 141.188 241.211C140.471 241.067 139.732 241.127 139.041 241.386C138.351 241.645 137.732 242.094 137.244 242.69C136.221 243.921 135.375 245.317 134.734 246.828C134.525 247.321 134.226 247.847 133.778 247.945C133.33 248.044 132.553 247.288 131.925 246.96C130.73 246.336 129.445 247.617 128.728 248.931C127.891 250.491 127.286 252.187 126.935 253.957C126.688 255.64 126.578 257.344 126.606 259.048C125.321 258.522 123.947 259.771 123.618 261.249C123.269 262.802 123.269 264.426 123.618 265.979C123.827 267.359 124.007 268.738 124.186 270.151C122.602 270.151 121.437 272.22 121.556 274.125C121.798 275.975 122.502 277.714 123.588 279.151C124.455 280.597 125.351 282.042 126.248 283.454C125.77 282.699 124.574 285.36 124.574 285.787C124.574 287.068 125.979 288.02 126.786 288.874C128.708 291.022 130.991 292.74 133.509 293.933C135.437 294.664 137.448 295.095 139.485 295.214C146.866 295.904 155.083 294.82 160.731 289.072C161.933 287.959 162.885 286.556 163.513 284.972C164.14 283.387 164.425 281.665 164.346 279.94C164.187 279.278 163.867 278.676 163.42 278.199Z" fill="#6B9E84"/>
<path d="M134.136 256.355C133.922 256.173 133.659 256.075 133.389 256.075C133.119 256.075 132.856 256.173 132.642 256.355C132.198 256.861 131.933 257.525 131.895 258.227C131.64 259.678 131.702 261.175 132.074 262.596C131.631 262.562 131.19 262.689 130.819 262.957C130.287 263.422 129.935 264.091 129.833 264.829C129.545 266.322 129.702 267.877 130.281 269.264C130.611 270.038 131.067 270.739 131.626 271.333C131.626 271.498 132.343 271.333 132.134 271.333C131.052 270.138 130.404 268.549 130.311 266.866C130.231 266.02 130.333 265.164 130.61 264.37C130.849 263.713 131.506 262.76 132.224 263.22C132.224 263.22 132.821 263.22 132.732 263.056C132.39 261.834 132.269 260.551 132.373 259.278C132.419 258.664 132.529 258.058 132.702 257.471C132.702 257.143 133.21 256.256 133.628 256.617C133.694 256.648 133.765 256.664 133.837 256.664C133.909 256.664 133.98 256.648 134.046 256.617C134.046 256.617 134.315 256.453 134.136 256.355Z" fill="#86CEA3"/>
<path d="M154.157 272.483C154.118 272.04 154.049 271.6 153.947 271.169C153.881 270.774 153.749 270.395 153.559 270.052C153.452 269.889 153.314 269.754 153.153 269.658C152.993 269.561 152.815 269.505 152.633 269.494C153.094 268.165 153.287 266.741 153.2 265.322C153.198 264.595 153.023 263.882 152.692 263.253C152.509 262.999 152.271 262.8 151.999 262.674C151.728 262.547 151.432 262.498 151.139 262.53C151.139 262.53 150.899 262.53 150.929 262.727C150.959 262.924 151.198 262.727 151.318 262.727C151.437 262.727 152.244 263.384 152.394 263.844C152.554 264.485 152.624 265.15 152.603 265.815C152.619 267.159 152.375 268.492 151.886 269.724C151.886 269.987 152.364 269.954 152.483 269.724C152.603 269.494 153.32 270.841 153.38 271.071C153.531 271.747 153.591 272.444 153.559 273.14C153.509 274.542 153.094 275.899 152.364 277.049C152.364 277.246 152.842 277.345 152.961 277.049C153.792 275.706 154.211 274.106 154.157 272.483Z" fill="#86CEA3"/>
<path d="M141.905 285.525C141.302 284.728 140.955 283.735 140.919 282.7C140.859 282.143 140.859 281.581 140.919 281.025C140.939 280.756 140.989 280.491 141.068 280.236C141.049 280.161 141.049 280.081 141.068 280.006C141.068 280.236 141.696 280.236 141.666 280.006C141.636 279.776 140.919 279.448 140.62 279.678C140.51 279.755 140.419 279.862 140.356 279.988C140.294 280.115 140.261 280.257 140.261 280.4C140.181 280.778 140.131 281.163 140.112 281.55C139.99 282.998 140.375 284.443 141.188 285.59C141.188 285.59 142.084 285.755 141.905 285.525Z" fill="#86CEA3"/>
<path d="M146.867 248.8C146.657 247.978 146 246.927 145.104 247.354C145.104 247.354 145.104 247.519 145.104 247.584C145.169 247.617 145.241 247.634 145.313 247.634C145.385 247.634 145.456 247.617 145.522 247.584L145.701 247.781C145.801 247.916 145.891 248.058 145.97 248.208C146.11 248.555 146.211 248.919 146.269 249.292C146.314 250.146 146.223 251.002 146 251.822C146 252.019 146.538 252.084 146.598 251.822C146.925 250.857 147.018 249.816 146.867 248.8Z" fill="#86CEA3"/>
<path d="M158.37 283.685C158.147 284.521 157.765 285.296 157.25 285.958C156.735 286.621 156.098 287.156 155.382 287.528C155.382 287.528 155.382 287.528 155.382 287.758C155.448 287.791 155.519 287.808 155.591 287.808C155.663 287.808 155.734 287.791 155.8 287.758C156.555 287.376 157.23 286.826 157.78 286.141C158.331 285.457 158.745 284.654 158.997 283.783C158.997 283.356 158.4 283.324 158.37 283.685Z" fill="#86CEA3"/>
<path d="M133.002 288.908C132.414 288.361 131.955 287.667 131.663 286.883C131.372 286.1 131.257 285.25 131.328 284.408C131.328 284.178 130.761 284.145 130.731 284.408C130.66 285.281 130.78 286.16 131.081 286.972C131.383 287.783 131.857 288.503 132.464 289.072C132.53 289.103 132.601 289.119 132.673 289.119C132.745 289.119 132.816 289.103 132.882 289.072C132.882 289.072 133.121 289.006 133.002 288.908Z" fill="#86CEA3"/>
<path d="M234.238 154.294H171.666V311.967H234.238V154.294Z" fill="#7A4500"/>
<path d="M231.069 158.367H174.832V311.967H231.069V158.367Z" fill="#FFF9F0"/>
<path d="M224.556 163.82H181.348V267.72H224.556V163.82Z" fill="#6981B7"/>
<path d="M224.556 218.546H181.348V220.157H224.556V218.546Z" fill="#E3EEFC"/>
<path d="M202.834 176.007H202.565L195.573 186.65L195.723 186.781L202.715 176.138L209.707 186.781L209.857 186.65L202.834 176.007Z" fill="#474799"/>
<path d="M214.248 185.435H191.239V199.822H214.248V185.435Z" fill="#A9CCFF"/>
<path d="M208.511 185.139H196.887L196.021 186.485H209.378L208.511 185.139ZM190.762 185.139V200.348H214.667V185.139H190.762ZM213.412 199.001H191.987V186.485H213.412V199.001Z" fill="#474799"/>
<path d="M198.17 190.46C197.125 190.46 196.646 191.248 196.646 192.529C196.646 193.811 197.095 194.566 198.17 194.566C199.246 194.566 199.664 193.745 199.664 192.464C199.664 191.183 199.246 190.46 198.17 190.46ZM198.17 194.073C197.483 194.073 197.244 193.515 197.244 192.529C197.244 191.544 197.483 190.986 198.17 190.986C198.858 190.986 199.067 191.445 199.067 192.464C199.067 193.482 198.828 194.073 198.17 194.073Z" fill="white"/>
<path d="M201.547 190.559H200.292V194.5H200.919V192.989H201.398C201.56 193.008 201.725 192.988 201.88 192.932C202.036 192.876 202.179 192.785 202.3 192.664C202.421 192.543 202.518 192.396 202.584 192.231C202.65 192.066 202.683 191.888 202.683 191.708C202.688 191.547 202.661 191.387 202.605 191.238C202.549 191.089 202.463 190.955 202.355 190.846C202.248 190.737 202.119 190.655 201.98 190.605C201.84 190.555 201.693 190.54 201.547 190.559ZM201.218 192.53H200.919V191.084H201.517C201.906 191.084 202.085 191.38 202.085 191.807C202.085 192.234 201.726 192.53 201.218 192.53Z" fill="white"/>
<path d="M205.343 193.942H203.849V192.628H205.074C205.093 192.519 205.093 192.408 205.074 192.299H203.789V191.084H205.193C205.224 190.966 205.224 190.841 205.193 190.723H203.102V194.664H205.163C205.17 194.544 205.17 194.423 205.163 194.303C205.254 194.204 205.316 194.079 205.343 193.942Z" fill="white"/>
<path d="M208.18 190.559V193.022V194.139L207.791 193.022L206.895 190.559H206.028V194.5H206.626V190.887L206.985 192.037L207.941 194.5H208.867V190.559H208.18Z" fill="white"/>
<path d="M228.829 226.43H216.488V229.88H228.829V226.43Z" fill="#474799"/>
<path d="M224.378 305.759H181.498V273.83H224.378V305.759ZM182.544 304.806H223.631V274.717H182.394L182.544 304.806Z" fill="#6981B7"/>
<g opacity="0.2">
<path d="M224.556 178.536V194.96L181.348 237.072V220.648L224.556 178.536Z" fill="white"/>
<path d="M224.556 200.677V204.783L181.348 246.895V242.788L224.556 200.677Z" fill="white"/>
<path d="M224.555 250.376V254.482L211.019 267.72H206.806L224.555 250.376Z" fill="white"/>
<path d="M224.556 235.594V245.875L202.205 267.72H191.627L224.556 235.594Z" fill="white"/>
<path d="M191.149 163.82L181.348 173.379V163.82H191.149Z" fill="white"/>
</g>
<path d="M434.804 116.32H267.797V286.968H434.804V116.32Z" fill="#FAEFE0"/>
<g opacity="0.4">
<path d="M434.801 215.687V224.424L370.706 286.935H361.682L434.801 215.687Z" fill="white"/>
<path d="M320.027 116.32L267.795 167.235V158.432L311.033 116.32H320.027Z" fill="white"/>
<path d="M434.201 183.749V205.795L351.844 287.082H329.475L434.201 183.749Z" fill="white"/>
</g>
<path d="M435.372 171.539H267.26V174.529H435.372V171.539Z" fill="#474799"/>
<path d="M435.372 228.498H267.26V231.488H435.372V228.498Z" fill="#474799"/>
<path d="M436.119 288.348H266.542V114.908H436.119V288.348ZM269.112 285.589H433.459V117.7H269.112V285.589Z" fill="#474799"/>
<path d="M473.289 74.2425L473.469 74.0454C467.382 63.7347 463.312 52.146 461.516 40.0144V33.8389H105.928V40.0144C104.132 52.146 100.062 63.7347 93.9756 74.0454L94.1549 74.2425H473.289Z" fill="#7A4500"/>
<path d="M473.41 74.0127H93.917V86.5608H473.41V74.0127Z" fill="#CF7600"/>
<path d="M461.516 30.751H105.928V40.0143H461.516V30.751Z" fill="#CF7600"/>
<path d="M408.805 2.43555H158.549V55.9786H408.805V2.43555Z" fill="#FFF9F0"/>
<path d="M410.717 58.1135H156.726V0.333008H410.717V58.1135ZM160.461 53.7446H406.862V4.4719H160.461V53.7446Z" fill="#FFD6A0"/>
<path d="M356.539 25.6182H390.663V31.5634H356.539V25.6182ZM370.585 9.375H376.618V48.125H370.536L370.585 9.375Z" fill="#F45B71"/>
<path d="M603.065 318.767H0V341.333H603.065V318.767Z" fill="#474799"/>
<g opacity="0.8">
<path d="M171.798 19.1388V33.5712C171.798 34.9223 172.01 36.0994 172.435 37.1025C172.88 38.1056 173.488 38.9347 174.257 39.5898C175.046 40.2244 175.956 40.7055 176.988 41.033C178.02 41.3606 179.133 41.5243 180.327 41.5243C181.521 41.5243 182.634 41.3606 183.666 41.033C184.718 40.7055 185.629 40.2244 186.398 39.5898C187.187 38.9347 187.794 38.1056 188.219 37.1025C188.664 36.0994 188.887 34.9223 188.887 33.5712V19.1388H183.757V33.2027C183.757 34.2877 183.474 35.168 182.907 35.8435C182.341 36.5191 181.481 36.8569 180.327 36.8569C179.194 36.8569 178.344 36.5191 177.778 35.8435C177.211 35.168 176.928 34.2877 176.928 33.2027V19.1388H171.798Z" fill="#252525"/>
<path d="M197.3 26.5085H192.778V40.6338H197.3V26.5085ZM201.337 31.2988L203.31 27.3376C203.067 26.9691 202.713 26.6825 202.248 26.4778C201.782 26.2731 201.297 26.1707 200.791 26.1707C200.022 26.1707 199.283 26.4266 198.575 26.9384C197.867 27.4502 197.29 28.1462 196.845 29.0265C196.42 29.9068 196.207 30.9099 196.207 32.0358L197.3 33.6633C197.3 32.9877 197.391 32.4145 197.573 31.9437C197.756 31.4728 198.019 31.1146 198.363 30.8689C198.707 30.6233 199.101 30.5005 199.546 30.5005C199.951 30.5005 200.285 30.5721 200.548 30.7154C200.831 30.8587 201.094 31.0532 201.337 31.2988Z" fill="#252525"/>
<path d="M204.296 41.6472C204.397 42.8959 204.731 43.9912 205.298 44.9329C205.865 45.895 206.704 46.6422 207.817 47.1745C208.951 47.7067 210.377 47.9729 212.097 47.9729C213.534 47.9729 214.829 47.7067 215.982 47.1745C217.136 46.6627 218.057 45.8438 218.745 44.7179C219.453 43.592 219.807 42.1283 219.807 40.3268V26.5085H215.406V40.3268C215.406 41.1866 215.244 41.9031 214.92 42.4763C214.617 43.0699 214.202 43.5101 213.676 43.7967C213.149 44.1038 212.563 44.2573 211.915 44.2573C211.328 44.2573 210.802 44.1549 210.337 43.9502C209.871 43.766 209.497 43.4794 209.214 43.0904C208.951 42.7015 208.789 42.2204 208.728 41.6472H204.296ZM203.993 33.3869C203.993 34.9632 204.306 36.2836 204.934 37.3482C205.581 38.4127 206.411 39.2213 207.423 39.774C208.435 40.3063 209.507 40.5724 210.64 40.5724C211.814 40.5724 212.846 40.2961 213.736 39.7433C214.647 39.1701 215.365 38.3513 215.891 37.2868C216.418 36.2018 216.681 34.9018 216.681 33.3869C216.681 31.8516 216.418 30.5516 215.891 29.4871C215.365 28.4226 214.647 27.614 213.736 27.0612C212.846 26.488 211.814 26.2014 210.64 26.2014C209.507 26.2014 208.435 26.4676 207.423 26.9998C206.411 27.5321 205.581 28.3305 204.934 29.395C204.306 30.4595 203.993 31.7902 203.993 33.3869ZM208.819 33.3869C208.819 32.65 208.971 32.0256 209.274 31.5138C209.578 31.002 209.983 30.613 210.488 30.3469C210.994 30.0808 211.551 29.9477 212.158 29.9477C212.542 29.9477 212.927 30.0194 213.311 30.1627C213.696 30.306 214.04 30.5209 214.343 30.8075C214.667 31.0941 214.92 31.4524 215.102 31.8823C215.305 32.3122 215.406 32.8137 215.406 33.3869C215.406 34.1444 215.244 34.779 214.92 35.2908C214.596 35.8026 214.181 36.1915 213.676 36.4577C213.19 36.7033 212.684 36.8261 212.158 36.8261C211.551 36.8261 210.994 36.6931 210.488 36.4269C209.983 36.1608 209.578 35.7719 209.274 35.2601C208.971 34.7278 208.819 34.1034 208.819 33.3869Z" fill="#252525"/>
<path d="M230.442 40.9409C232.222 40.9409 233.73 40.5929 234.964 39.8969C236.219 39.2008 237.21 38.1568 237.939 36.7647L233.841 35.7514C233.497 36.3655 233.032 36.8261 232.445 37.1332C231.878 37.4403 231.19 37.5938 230.381 37.5938C229.673 37.5938 229.076 37.4403 228.59 37.1332C228.104 36.8057 227.74 36.3348 227.497 35.7207C227.254 35.1065 227.133 34.3696 227.133 33.5098C227.153 32.5681 227.275 31.7902 227.497 31.176C227.74 30.5414 228.094 30.0706 228.56 29.7635C229.025 29.4564 229.602 29.3029 230.29 29.3029C230.836 29.3029 231.312 29.4257 231.716 29.6714C232.121 29.917 232.435 30.265 232.657 30.7154C232.88 31.1658 232.991 31.698 232.991 32.3122C232.991 32.4555 232.951 32.6397 232.87 32.8649C232.809 33.0696 232.728 33.2436 232.627 33.3869L233.72 31.9744H225.099V34.5538H237.848C237.888 34.4105 237.909 34.2365 237.909 34.0318C237.909 33.8066 237.909 33.5814 237.909 33.3562C237.909 31.8413 237.615 30.5516 237.028 29.4871C236.441 28.4226 235.592 27.614 234.479 27.0612C233.366 26.488 232 26.2014 230.381 26.2014C228.762 26.2014 227.356 26.4983 226.162 27.092C224.988 27.6856 224.087 28.5352 223.46 29.6407C222.833 30.7461 222.519 32.0563 222.519 33.5712C222.519 35.0656 222.843 36.3655 223.491 37.471C224.138 38.5765 225.049 39.4363 226.222 40.0504C227.416 40.6441 228.823 40.9409 230.442 40.9409Z" fill="#252525"/>
<path d="M249.815 32.0358V40.6338H254.58V31.5445C254.58 29.8454 254.186 28.525 253.396 27.5833C252.607 26.6416 251.342 26.1707 249.602 26.1707C248.57 26.1707 247.7 26.3857 246.992 26.8156C246.304 27.2455 245.757 27.8494 245.353 28.6273V26.5085H240.739V40.6338H245.353V32.0358C245.353 31.4831 245.454 31.0122 245.656 30.6233C245.858 30.2343 246.142 29.9375 246.506 29.7328C246.87 29.5281 247.295 29.4257 247.781 29.4257C248.509 29.4257 249.025 29.6509 249.329 30.1013C249.653 30.5516 249.815 31.1965 249.815 32.0358Z" fill="#252525"/>
<path d="M256.559 26.5085V30.3469H265.908V26.5085H256.559ZM259.018 21.5954V40.6338H263.419V21.5954H259.018Z" fill="#252525"/>
<path d="M281.788 29.8863C281.788 28.5557 282.081 27.4195 282.668 26.4778C283.255 25.5361 284.024 24.8196 284.975 24.3283C285.946 23.837 287.009 23.5913 288.162 23.5913C289.174 23.5913 290.064 23.7244 290.833 23.9905C291.602 24.2362 292.29 24.5842 292.897 25.0346C293.505 25.4645 294.041 25.9251 294.506 26.4164V20.8277C293.656 20.1521 292.725 19.6199 291.714 19.2309C290.702 18.8419 289.417 18.6475 287.859 18.6475C286.159 18.6475 284.591 18.9136 283.154 19.4458C281.717 19.9781 280.483 20.7458 279.451 21.7489C278.419 22.752 277.619 23.9393 277.053 25.3109C276.486 26.6825 276.203 28.2076 276.203 29.8863C276.203 31.565 276.486 33.0901 277.053 34.4617C277.619 35.8333 278.419 37.0206 279.451 38.0237C280.483 39.0268 281.717 39.7945 283.154 40.3268C284.591 40.859 286.159 41.1252 287.859 41.1252C289.417 41.1252 290.702 40.9307 291.714 40.5417C292.725 40.1528 293.656 39.6205 294.506 38.9449V33.3562C294.041 33.8475 293.505 34.3082 292.897 34.7381C292.29 35.168 291.602 35.516 290.833 35.7821C290.064 36.0482 289.174 36.1813 288.162 36.1813C287.009 36.1813 285.946 35.9356 284.975 35.4443C284.024 34.953 283.255 34.2365 282.668 33.2948C282.081 32.3327 281.788 31.1965 281.788 29.8863Z" fill="#252525"/>
<path d="M301.796 36.212C301.796 35.864 301.877 35.5774 302.039 35.3522C302.201 35.1065 302.444 34.9223 302.768 34.7995C303.091 34.6766 303.527 34.6152 304.073 34.6152C304.781 34.6152 305.449 34.7176 306.076 34.9223C306.724 35.1065 307.29 35.3829 307.776 35.7514V33.694C307.533 33.4279 307.169 33.172 306.683 32.9263C306.198 32.6807 305.611 32.476 304.923 32.3122C304.255 32.1484 303.496 32.0665 302.646 32.0665C300.906 32.0665 299.56 32.4657 298.609 33.2641C297.658 34.042 297.183 35.1065 297.183 36.4577C297.183 37.4198 297.405 38.2387 297.85 38.9142C298.316 39.5898 298.923 40.1016 299.672 40.4496C300.441 40.7771 301.27 40.9409 302.161 40.9409C303.051 40.9409 303.881 40.7874 304.65 40.4803C305.419 40.1528 306.046 39.6819 306.532 39.0678C307.017 38.4332 307.26 37.6655 307.26 36.7647L306.774 34.9223C306.774 35.5774 306.633 36.1301 306.349 36.5805C306.066 37.0309 305.702 37.3686 305.257 37.5938C304.811 37.819 304.326 37.9316 303.8 37.9316C303.435 37.9316 303.102 37.8702 302.798 37.7474C302.494 37.6041 302.252 37.4096 302.07 37.1639C301.887 36.8978 301.796 36.5805 301.796 36.212ZM299.763 30.8382C299.965 30.7154 300.289 30.5619 300.734 30.3776C301.179 30.1729 301.695 29.9989 302.282 29.8556C302.889 29.7123 303.506 29.6407 304.134 29.6407C304.559 29.6407 304.933 29.6816 305.257 29.7635C305.601 29.8454 305.884 29.9784 306.107 30.1627C306.329 30.3469 306.491 30.5721 306.592 30.8382C306.714 31.0839 306.774 31.3807 306.774 31.7287V40.6338H311.176V30.6847C311.176 29.7021 310.892 28.873 310.326 28.1974C309.759 27.5219 308.99 27.0101 308.019 26.6621C307.048 26.2936 305.945 26.1093 304.71 26.1093C303.395 26.1093 302.181 26.2833 301.068 26.6313C299.955 26.9794 299.004 27.3478 298.215 27.7368L299.763 30.8382Z" fill="#252525"/>
<path d="M319.13 26.5085H314.608V40.6338H319.13V26.5085ZM323.167 31.2988L325.14 27.3376C324.897 26.9691 324.543 26.6825 324.078 26.4778C323.612 26.2731 323.127 26.1707 322.621 26.1707C321.852 26.1707 321.113 26.4266 320.405 26.9384C319.697 27.4502 319.12 28.1462 318.675 29.0265C318.25 29.9068 318.037 30.9099 318.037 32.0358L319.13 33.6633C319.13 32.9877 319.221 32.4145 319.403 31.9437C319.586 31.4728 319.849 31.1146 320.193 30.8689C320.537 30.6233 320.931 30.5005 321.376 30.5005C321.781 30.5005 322.115 30.5721 322.378 30.7154C322.661 30.8587 322.924 31.0532 323.167 31.2988Z" fill="#252525"/>
<path d="M333.745 40.9409C335.526 40.9409 337.033 40.5929 338.268 39.8969C339.522 39.2008 340.514 38.1568 341.242 36.7647L337.145 35.7514C336.801 36.3655 336.335 36.8261 335.748 37.1332C335.182 37.4403 334.494 37.5938 333.684 37.5938C332.976 37.5938 332.379 37.4403 331.894 37.1332C331.408 36.8057 331.044 36.3348 330.801 35.7207C330.558 35.1065 330.437 34.3696 330.437 33.5098C330.457 32.5681 330.578 31.7902 330.801 31.176C331.044 30.5414 331.398 30.0706 331.863 29.7635C332.329 29.4564 332.905 29.3029 333.593 29.3029C334.14 29.3029 334.615 29.4257 335.02 29.6714C335.425 29.917 335.738 30.265 335.961 30.7154C336.184 31.1658 336.295 31.698 336.295 32.3122C336.295 32.4555 336.254 32.6397 336.173 32.8649C336.113 33.0696 336.032 33.2436 335.931 33.3869L337.023 31.9744H328.403V34.5538H341.151C341.192 34.4105 341.212 34.2365 341.212 34.0318C341.212 33.8066 341.212 33.5814 341.212 33.3562C341.212 31.8413 340.919 30.5516 340.332 29.4871C339.745 28.4226 338.895 27.614 337.782 27.0612C336.669 26.488 335.303 26.2014 333.684 26.2014C332.066 26.2014 330.659 26.4983 329.465 27.092C328.292 27.6856 327.391 28.5352 326.764 29.6407C326.136 30.7461 325.823 32.0563 325.823 33.5712C325.823 35.0656 326.147 36.3655 326.794 37.471C327.442 38.5765 328.352 39.4363 329.526 40.0504C330.72 40.6441 332.126 40.9409 333.745 40.9409Z" fill="#252525"/>
</g>
</svg>
